# File generated by ImageToStl.com - Free Image and 3D model conversion tools

o obj1
v -9.92494297 0 11.22240734
v -6.74996614 0 11.29897976
v -6 0 11.5
v -6 1 11.5
v -1 0 19.94987488
v -5.25003386 0 11.29897976
v -5.25003386 1 11.29897976
v -9.70108223 0 12.42648315
v -7.29903793 0 10.75
v -6.74996614 1 11.29897976
v -9.99993706 0 10
v -7.49993277 0 10
v -7.29903793 1 10.75
v -9.92494297 0 8.77759266
v -7.29903793 0 9.25
v -7.49993277 1 10
v -6.74996614 0 8.70102024
v -7.29903793 1 9.25
v -9.70108223 0 7.57351685
v -6 0 8.5
v -6.74996614 1 8.70102024
v -9.33171082 0 6.40582848
v -5.25003386 0 8.70102024
v -6 1 8.5
v -8.18067741 0 4.24885607
v -4.70096207 0 9.25
v -5.25003386 1 8.70102024
v -8.82236481 0 5.29203987
v -4.50006723 0 10
v -4.70096207 1 9.25
v -6.54059315 0 2.43560338
v -7.41626787 0 3.29192519
v -4.70096207 0 10.75
v -4.50006723 1 10
v -4.70096207 1 10.75
v -2.20857835 0 0.24693923
v -1 0 0.05012563
v -0.4989624 0.1346671 0.01245593
v -3.3843956 0 0.59012532
v -4.50943089 0 1.07448637
v -5.56678057 0 1.6927402
v -9.33171082 0 13.59417152
v -8.82236481 0 14.70796013
v -8.18067741 0 15.75114346
v -7.41626787 0 16.70807457
v -6.54059315 0 17.5643959
v -5.56678057 0 18.30726051
v -4.50943089 0 18.92551422
v -3.3843956 0 19.40987396
v -2.20857835 0 19.75306129
v -2.20857835 1 19.75306129
v -1 1 19.94987488
v -0.49896777 0.13466398 19.98754311
v -1 1 0.05012563
v -0.47927001 6.5999999 0.01149159
v -2.20857835 1 0.24693923
v -3.3843956 1 0.59012532
v -4.50943089 1 1.07448637
v -5.56678057 1 1.6927402
v -6.54059315 1 2.43560338
v -7.41626787 1 3.29192519
v -8.18067741 1 4.24885607
v -8.82236481 1 5.29203987
v -9.33171082 1 6.40582848
v -9.70108223 1 7.57351685
v -9.92494297 1 8.77759266
v -9.99993706 1 10
v -9.92494297 1 11.22240734
v -9.70108223 1 12.42648315
v -9.33171082 1 13.59417152
v -8.82236481 1 14.70796013
v -8.18067741 1 15.75114346
v -7.41626787 1 16.70807457
v -6.54059315 1 17.5643959
v -5.56678057 1 18.30726051
v -4.50943089 1 18.92551422
v -3.3843956 1 19.40987396
v 0 6.5 15.5
v 0 5.75003386 4.29897976
v 0 6.5 4.5
v -1 6.5 4.5
v 0 9 17.60000038
v 0 7.24996614 4.29897976
v -1 7.24996614 4.29897976
v 0 7.24996614 15.70102024
v 0 7.79903793 16.25
v 0 1 0
v 0 5.20096207 3.75
v -1 5.75003386 4.29897976
v 0 5.00006723 3
v -1 5.20096207 3.75
v 0 5.20096207 2.25
v -1 5.00006723 3
v 0 5.75003386 1.70102024
v -1 5.20096207 2.25
v 0 6.5 1.5
v -1 5.75003386 1.70102024
v 0 8.81735992 1.4817555
v 0 7.24996614 1.70102024
v -1 6.5 1.5
v 0 9 2.4000001
v 0 7.79903793 2.25
v -1 7.24996614 1.70102024
v 0 7.99993277 3
v -1 7.79903793 2.25
v 0 7.79903793 3.75
v -1 7.99993277 3
v -1 7.79903793 3.75
v 0 8.297019 19.29701996
v 0 5.75003386 18.29897881
v 0 6.5 18.5
v -1 6.5 18.5
v 0 8.81735992 18.51824379
v 0 7.24996614 18.29897881
v -1 7.24996614 18.29897881
v 0 6.5999999 20
v 0 5.20096207 17.75
v -1 5.75003386 18.29897881
v 0 7.51824427 19.81735992
v 0 1 20
v 0 5.00006723 17
v -1 5.20096207 17.75
v 0 5.20096207 16.25
v -1 5.00006723 17
v 0 5.75003386 15.70102024
v -1 5.20096207 16.25
v -1 5.75003386 15.70102024
v -1 6.5 15.5
v -1 7.24996614 15.70102024
v 0 7.99993277 17
v -1 7.79903793 16.25
v 0 7.79903793 17.75
v -1 7.99993277 17
v -1 7.79903793 17.75
v -0.52697289 6.5999999 19.98610497
v -0.13459818 0.49907792 19.99909401
v -1 8.2943821 19.24557304
v -1 7.51649809 19.76707458
v -1 6.5999999 19.94987488
v -1 8.81607246 18.46261787
v -1 8.95380306 18.00617027
v -0.53234762 9 17.58138847
v -0.47023121 9 2.41450429
v -1 9 17.5339241
v -1 9 2.46607661
v 0 8.297019 0.70298052
v -1 8.81607246 1.53738153
v -1 8.95380306 1.99382925
v 0 7.51824427 0.18263973
v -1 8.2943821 0.7544269
v 0 6.5999999 -0
v -1 7.51649809 0.23292534
v -0.13459307 0.49908686 0.00090581
v -1 6.5999999 0.05012563
vn 0 -1 0
vn 0.2589 0 -0.9659
vn -0.2589 -0 -0.9659
vn 0.70705 0 -0.70717
vn 0.96595 0 -0.25874
vn 0.96595 -0 0.25874
vn 0.96595 -0 -0.25874
vn 0.70705 0 0.70717
vn 0.96595 0 0.25874
vn 0.2589 -0 0.9659
vn 0.70705 -0 0.70717
vn -0.2589 0 0.9659
vn 0.2589 0 0.9659
vn -0.70705 0 0.70717
vn -0.96595 0 0.25874
vn -0.96595 0 -0.25874
vn -0.96595 0 0.25874
vn -0.70705 -0 -0.70717
vn -0.96595 0 -0.25874
vn 0.25956 -0.96573 0
vn -0.16073 0 0.987
vn -0.16073 0 0.987
vn -0.07497 0 0.99719
vn 0.25956 -0.96573 -0
vn -0.16073 0 -0.987
vn -0.07399 0 -0.99726
vn -0.07499 8E-05 -0.99718
vn -0.28018 0 -0.95995
vn -0.16073 -0 -0.987
vn -0.39544 0 -0.91849
vn -0.28018 0 -0.95995
vn -0.50476 -0 -0.86326
vn -0.39544 -0 -0.91849
vn -0.60651 0 -0.79507
vn -0.50476 0 -0.86326
vn -0.69916 -0 -0.71496
vn -0.60651 0 -0.79507
vn -0.78132 0 -0.62413
vn -0.69916 0 -0.71496
vn -0.85176 -0 -0.52394
vn -0.78132 -0 -0.62413
vn -0.90942 -0 -0.41589
vn -0.85176 -0 -0.52394
vn -0.95344 -0 -0.3016
vn -0.90942 -0 -0.41589
vn -0.98315 0 -0.18279
vn -0.95344 0 -0.3016
vn -0.99812 0 -0.06123
vn -0.98315 0 -0.18279
vn -0.99812 0 0.06123
vn -0.99812 -0 -0.06123
vn -0.98315 0 0.18279
vn -0.99812 0 0.06123
vn -0.95344 -0 0.3016
vn -0.98315 -0 0.18279
vn -0.90942 0 0.41589
vn -0.95344 0 0.3016
vn -0.85176 0 0.52394
vn -0.90942 0 0.41589
vn -0.78132 0 0.62413
vn -0.85176 0 0.52394
vn -0.69916 0 0.71496
vn -0.78132 0 0.62413
vn -0.60651 -0 0.79507
vn -0.69916 0 0.71496
vn -0.50476 0 0.86326
vn -0.60651 0 0.79507
vn -0.39544 0 0.91849
vn -0.50476 0 0.86326
vn -0.28018 -0 0.95995
vn -0.39544 -0 0.91849
vn -0.28018 0 0.95995
vn 1 0 0
vn 0 0.2589 -0.9659
vn -0 -0.2589 -0.9659
vn 0 -0.2589 -0.9659
vn 0 0.70705 -0.70717
vn 0 0.96595 -0.25874
vn -0 0.96595 0.25874
vn -0 0.96595 -0.25874
vn -0 0.70705 0.70717
vn 0 0.96595 0.25874
vn -0 0.2589 0.9659
vn -0 0.70705 0.70717
vn 0 -0.2589 0.9659
vn 0 0.2589 0.9659
vn 0 -0.70705 0.70717
vn 0 -0.96595 0.25874
vn -0 -0.96595 -0.25874
vn -0 -0.96595 0.25874
vn 0 -0.70705 -0.70717
vn 0 -0.96595 -0.25874
vn -0 -0.70705 -0.70717
vn -0 0.70705 0.70717
vn -0 -0.70705 -0.70717
vn -0.02636 0 0.99965
vn 0.96574 -0.2595 0
vn -0.01182 0.00137 0.99993
vn -0.02585 0.19501 0.98046
vn -0.0442 0.55501 0.83067
vn -0.0427 0.55634 0.82985
vn -0.04959 0.19536 0.97948
vn -0.07447 0.22142 0.97233
vn -0.03196 0.83105 0.55527
vn -0.03071 0.8318 0.55423
vn 0.03391 0.98022 0.19497
vn -0.0173 0.95722 0.28884
vn -0 1 0
vn -0.00364 0.99455 0.10415
vn -0.00602 0.98077 -0.19508
vn -0.03196 0.83105 -0.55527
vn -0.01963 0.97926 -0.20164
vn 0.08562 0.99159 -0.097
vn -0.0173 0.95722 -0.28884
vn -0.0442 0.55501 -0.83067
vn -0.03071 0.8318 -0.55423
vn -0.0496 0.19484 -0.97958
vn -0.0427 0.55634 -0.82985
vn -0.00673 0 -0.99998
vn -0.02337 0.22222 -0.97472
vn -0.02397 0.00038 -0.99971
vn 0.96575 -0.25949 0
vn -0.00988 0.9952 0.09735
vn -1 0 0
vn -0.07637 -0.00011 0.99708
vn -0.07399 -0 -0.99726
vn -0.07257 0.19509 -0.9781
vn -0.03163 -5E-05 -0.9995
vn -0.03177 8E-05 0.9995
vn 0.70715 -0.70706 0
vn 0.70716 -0.70706 -0
f 1//1 2//1 3//1
f 4//2 3//2 2//2
f 5//1 3//1 6//1
f 7//3 6//3 3//3
f 8//1 3//1 5//1
f 8//1 1//1 3//1
f 7//3 3//3 4//3
f 1//1 9//1 2//1
f 10//4 2//4 9//4
f 10//2 4//2 2//2
f 11//1 12//1 9//1
f 13//5 9//5 12//5
f 1//1 11//1 9//1
f 10//4 9//4 13//4
f 14//1 15//1 12//1
f 16//6 12//6 15//6
f 11//1 14//1 12//1
f 13//7 12//7 16//7
f 14//1 17//1 15//1
f 18//8 15//8 17//8
f 16//9 15//9 18//9
f 19//1 20//1 17//1
f 21//10 17//10 20//10
f 14//1 19//1 17//1
f 18//11 17//11 21//11
f 22//1 23//1 20//1
f 24//12 20//12 23//12
f 19//1 22//1 20//1
f 21//13 20//13 24//13
f 25//1 26//1 23//1
f 27//14 23//14 26//14
f 28//1 25//1 23//1
f 22//1 28//1 23//1
f 24//12 23//12 27//12
f 5//1 29//1 26//1
f 30//15 26//15 29//15
f 31//1 5//1 26//1
f 32//1 31//1 26//1
f 25//1 32//1 26//1
f 27//14 26//14 30//14
f 5//1 33//1 29//1
f 34//16 29//16 33//16
f 30//17 29//17 34//17
f 5//1 6//1 33//1
f 35//18 33//18 6//18
f 34//19 33//19 35//19
f 35//18 6//18 7//18
f 36//1 37//1 5//1
f 38//20 5//20 37//20
f 39//1 36//1 5//1
f 40//1 39//1 5//1
f 41//1 40//1 5//1
f 31//1 41//1 5//1
f 42//1 8//1 5//1
f 43//1 42//1 5//1
f 44//1 43//1 5//1
f 45//1 44//1 5//1
f 46//1 45//1 5//1
f 47//1 46//1 5//1
f 48//1 47//1 5//1
f 49//1 48//1 5//1
f 50//1 49//1 5//1
f 51//21 50//21 5//21
f 51//22 5//22 52//22
f 53//23 52//23 5//23
f 38//24 53//24 5//24
f 54//25 37//25 36//25
f 55//26 37//26 54//26
f 38//27 37//27 55//27
f 56//28 36//28 39//28
f 56//29 54//29 36//29
f 57//30 39//30 40//30
f 56//31 39//31 57//31
f 58//32 40//32 41//32
f 57//33 40//33 58//33
f 59//34 41//34 31//34
f 58//35 41//35 59//35
f 60//36 31//36 32//36
f 59//37 31//37 60//37
f 61//38 32//38 25//38
f 60//39 32//39 61//39
f 62//40 25//40 28//40
f 61//41 25//41 62//41
f 63//42 28//42 22//42
f 62//43 28//43 63//43
f 64//44 22//44 19//44
f 63//45 22//45 64//45
f 65//46 19//46 14//46
f 64//47 19//47 65//47
f 66//48 14//48 11//48
f 65//49 14//49 66//49
f 67//50 11//50 1//50
f 66//51 11//51 67//51
f 68//52 1//52 8//52
f 67//53 1//53 68//53
f 69//54 8//54 42//54
f 68//55 8//55 69//55
f 70//56 42//56 43//56
f 69//57 42//57 70//57
f 71//58 43//58 44//58
f 70//59 43//59 71//59
f 72//60 44//60 45//60
f 71//61 44//61 72//61
f 73//62 45//62 46//62
f 72//63 45//63 73//63
f 74//64 46//64 47//64
f 73//65 46//65 74//65
f 75//66 47//66 48//66
f 74//67 47//67 75//67
f 76//68 48//68 49//68
f 75//69 48//69 76//69
f 77//70 49//70 50//70
f 76//71 49//71 77//71
f 77//72 50//72 51//72
f 78//73 79//73 80//73
f 81//74 80//74 79//74
f 82//73 80//73 83//73
f 84//75 83//75 80//75
f 85//73 78//73 80//73
f 86//73 85//73 80//73
f 82//73 86//73 80//73
f 84//76 80//76 81//76
f 87//73 88//73 79//73
f 89//77 79//77 88//77
f 87//73 79//73 78//73
f 89//74 81//74 79//74
f 87//73 90//73 88//73
f 91//78 88//78 90//78
f 89//77 88//77 91//77
f 87//73 92//73 90//73
f 93//79 90//79 92//79
f 91//80 90//80 93//80
f 87//73 94//73 92//73
f 95//81 92//81 94//81
f 93//82 92//82 95//82
f 87//73 96//73 94//73
f 97//83 94//83 96//83
f 95//84 94//84 97//84
f 98//73 99//73 96//73
f 100//85 96//85 99//85
f 87//73 98//73 96//73
f 97//86 96//86 100//86
f 101//73 102//73 99//73
f 103//87 99//87 102//87
f 98//73 101//73 99//73
f 100//85 99//85 103//85
f 101//73 104//73 102//73
f 105//88 102//88 104//88
f 103//87 102//87 105//87
f 82//73 106//73 104//73
f 107//89 104//89 106//89
f 101//73 82//73 104//73
f 105//90 104//90 107//90
f 82//73 83//73 106//73
f 108//91 106//91 83//91
f 107//92 106//92 108//92
f 108//93 83//93 84//93
f 109//73 110//73 111//73
f 112//74 111//74 110//74
f 113//73 111//73 114//73
f 115//75 114//75 111//75
f 113//73 109//73 111//73
f 115//76 111//76 112//76
f 116//73 117//73 110//73
f 118//77 110//77 117//77
f 119//73 116//73 110//73
f 109//73 119//73 110//73
f 118//74 112//74 110//74
f 120//73 121//73 117//73
f 122//78 117//78 121//78
f 116//73 120//73 117//73
f 118//77 117//77 122//77
f 87//73 123//73 121//73
f 124//79 121//79 123//79
f 87//73 121//73 120//73
f 122//80 121//80 124//80
f 87//73 125//73 123//73
f 126//81 123//81 125//81
f 124//82 123//82 126//82
f 87//73 78//73 125//73
f 127//83 125//83 78//83
f 126//94 125//94 127//94
f 128//85 78//85 85//85
f 127//86 78//86 128//86
f 129//87 85//87 86//87
f 128//85 85//85 129//85
f 82//73 130//73 86//73
f 131//88 86//88 130//88
f 129//87 86//87 131//87
f 82//73 132//73 130//73
f 133//89 130//89 132//89
f 131//90 130//90 133//90
f 113//73 114//73 132//73
f 134//91 132//91 114//91
f 82//73 113//73 132//73
f 133//92 132//92 134//92
f 134//95 114//95 115//95
f 135//96 120//96 116//96
f 136//97 87//97 120//97
f 136//98 120//98 135//98
f 135//99 116//99 119//99
f 137//100 119//100 109//100
f 138//101 119//101 137//101
f 139//102 119//102 138//102
f 135//103 119//103 139//103
f 140//104 109//104 113//104
f 137//105 109//105 140//105
f 141//106 113//106 82//106
f 140//107 113//107 141//107
f 142//108 82//108 101//108
f 141//109 82//109 142//109
f 143//110 101//110 98//110
f 144//108 142//108 101//108
f 145//108 144//108 101//108
f 143//108 145//108 101//108
f 87//73 146//73 98//73
f 147//111 98//111 146//111
f 143//112 98//112 145//112
f 148//113 145//113 98//113
f 148//114 98//114 147//114
f 87//73 149//73 146//73
f 150//115 146//115 149//115
f 147//116 146//116 150//116
f 87//73 151//73 149//73
f 152//117 149//117 151//117
f 150//118 149//118 152//118
f 153//119 151//119 87//119
f 55//120 152//120 151//120
f 153//121 55//121 151//121
f 153//122 87//122 136//122
f 141//123 142//123 144//123
f 133//124 144//124 145//124
f 134//124 141//124 144//124
f 133//124 134//124 144//124
f 105//124 145//124 148//124
f 107//124 108//124 145//124
f 128//124 145//124 108//124
f 105//124 107//124 145//124
f 131//124 133//124 145//124
f 129//124 131//124 145//124
f 128//124 129//124 145//124
f 115//124 140//124 141//124
f 134//124 115//124 141//124
f 112//124 137//124 140//124
f 115//124 112//124 140//124
f 52//124 138//124 137//124
f 112//124 52//124 137//124
f 52//124 139//124 138//124
f 53//23 139//23 52//23
f 53//125 135//125 139//125
f 93//124 54//124 52//124
f 51//108 52//108 54//108
f 89//124 52//124 81//124
f 127//124 81//124 52//124
f 91//124 93//124 52//124
f 89//124 91//124 52//124
f 118//124 52//124 112//124
f 126//124 127//124 52//124
f 124//124 126//124 52//124
f 122//124 124//124 52//124
f 118//124 122//124 52//124
f 95//124 154//124 54//124
f 55//126 54//126 154//126
f 93//124 95//124 54//124
f 77//108 51//108 54//108
f 76//108 77//108 54//108
f 75//108 76//108 54//108
f 74//108 75//108 54//108
f 35//108 74//108 54//108
f 64//108 65//108 54//108
f 24//108 54//108 65//108
f 63//108 64//108 54//108
f 62//108 63//108 54//108
f 61//108 62//108 54//108
f 60//108 61//108 54//108
f 59//108 60//108 54//108
f 58//108 59//108 54//108
f 57//108 58//108 54//108
f 56//108 57//108 54//108
f 34//108 35//108 54//108
f 30//108 34//108 54//108
f 27//108 30//108 54//108
f 24//108 27//108 54//108
f 97//124 152//124 154//124
f 55//127 154//127 152//127
f 95//124 97//124 154//124
f 97//124 150//124 152//124
f 100//124 147//124 150//124
f 97//124 100//124 150//124
f 103//124 148//124 147//124
f 100//124 103//124 147//124
f 103//124 105//124 148//124
f 128//124 84//124 81//124
f 127//124 128//124 81//124
f 128//124 108//124 84//124
f 35//108 73//108 74//108
f 35//108 72//108 73//108
f 7//108 71//108 72//108
f 35//108 7//108 72//108
f 7//108 70//108 71//108
f 4//108 69//108 70//108
f 7//108 4//108 70//108
f 10//108 68//108 69//108
f 10//108 69//108 4//108
f 16//108 67//108 68//108
f 13//108 16//108 68//108
f 10//108 13//108 68//108
f 18//108 66//108 67//108
f 16//108 18//108 67//108
f 24//108 65//108 66//108
f 21//108 24//108 66//108
f 18//108 21//108 66//108
f 153//128 38//128 55//128
f 53//129 136//129 135//129
f 38//130 136//130 53//130
f 153//131 136//131 38//131
# Vertices: 154, normals: 131, texture coordinates: 0, faces: 316

