# File generated by ImageToStl.com - Free Image and 3D model conversion tools

o obj1
v 1.40954709 -0 -0.51296711
v 2.39874458 -0 -0.70425719
v 2.5 -0 0
v 2.5 4.19999981 0
v 1.5 -0 0
v 2.39874458 -0 0.70425719
v 2.39874458 4.19999981 0.70425719
v 0.75 -0 -1.29903805
v 2.10311174 -0 -1.35160995
v 2.39874458 4.19999981 -0.70425719
v 1.14901614 -0 -0.96422005
v -1.63708925 0 -1.88942134
v 1.63708925 -0 -1.88942134
v 2.10311174 4.19999981 -1.35160995
v 0.26053104 -0 -1.47718716
v -1.03858769 0 -2.27405524
v 1.03858769 -0 -2.27405524
v 1.63708925 4.19999981 -1.88942134
v -0.35583705 0 -2.4745338
v 0.35583705 -0 -2.4745338
v 1.03858769 4.19999981 -2.27405524
v 0.35583705 4.19999981 -2.4745338
v -0.35583705 4.19999981 -2.4745338
v -1.03858769 4.19999981 -2.27405524
v -0.26053104 0 -1.47718716
v -2.10311174 0 -1.35160995
v -1.63708925 4.19999981 -1.88942134
v -1.14901614 0 -0.96422005
v -2.39874458 0 -0.70425719
v -2.10311174 4.19999981 -1.35160995
v -0.75 0 -1.29903805
v -1.5 0 0
v -2.5 0 0
v -2.39874458 4.19999981 -0.70425719
v -1.40954709 0 -0.51296711
v -1.40954709 0 0.51296711
v -2.39874458 0 0.70425719
v -2.5 4.19999981 0
v -0.75 0 1.29903805
v -2.10311174 0 1.35160995
v -2.39874458 4.19999981 0.70425719
v -1.14901614 0 0.96422005
v 1.63708925 -0 1.88942134
v -1.63708925 0 1.88942134
v -2.10311174 4.19999981 1.35160995
v -0.26053104 0 1.47718716
v 1.03858769 -0 2.27405524
v -1.03858769 0 2.27405524
v -1.63708925 4.19999981 1.88942134
v 0.35583705 -0 2.4745338
v -0.35583705 0 2.4745338
v -1.03858769 4.19999981 2.27405524
v -0.35583705 4.19999981 2.4745338
v 0.35583705 4.19999981 2.4745338
v 1.03858769 4.19999981 2.27405524
v 0.26053104 -0 1.47718716
v 2.10311174 -0 1.35160995
v 1.63708925 4.19999981 1.88942134
v 1.14901614 -0 0.96422005
v 2.10311174 4.19999981 1.35160995
v 0.75 -0 1.29903805
v 1.40954709 -0 0.51296711
v 1.5 4.19999981 0
v 1.40954709 4.19999981 -0.51296711
v 1.40954709 4.19999981 0.51296711
v 1.14901614 4.19999981 0.96422005
v 0.75 4.19999981 1.29903805
v 0.26053104 4.19999981 1.47718716
v -0.26053104 4.19999981 1.47718716
v -0.75 4.19999981 1.29903805
v -1.14901614 4.19999981 0.96422005
v -1.40954709 4.19999981 0.51296711
v -1.5 4.19999981 0
v -1.40954709 4.19999981 -0.51296711
v -1.14901614 4.19999981 -0.96422005
v -0.75 4.19999981 -1.29903805
v -0.26053104 4.19999981 -1.47718716
v 0.26053104 4.19999981 -1.47718716
v 0.75 4.19999981 -1.29903805
v 1.14901614 4.19999981 -0.96422005
vn -0 -1 -0
vn 0.98982 -0 -0.14231
vn -0 -1 0
vn 0.98982 0 0.14231
vn -0 -1 -0
vn 0.98982 -0 0.14231
vn -0 -1 -0
vn 0.90963 0 -0.41541
vn -0 -1 -0
vn -0 -1 0
vn 0.98982 0 -0.14231
vn -0 -1 -0
vn 0.75575 0 -0.65487
vn -0 -1 -0
vn -0 -1 -0
vn 0.90963 -0 -0.41541
vn -0 -1 0
vn 0.54064 0 -0.84125
vn -0 -1 0
vn 0.75575 0 -0.65487
vn -0 -1 -0
vn 0.28174 0 -0.95949
vn -0 -1 -0
vn 0.54064 0 -0.84125
vn 0 0 -1
vn 0.28174 0 -0.95949
vn -0.28174 0 -0.95949
vn -0.54064 0 -0.84125
vn -0.28174 0 -0.95949
vn -0.75575 0 -0.65487
vn -0.54064 0 -0.84125
vn -0 -1 -0
vn -0.90963 0 -0.41541
vn -0.75575 0 -0.65487
vn -0.98982 0 -0.14231
vn -0 -1 0
vn -0 -1 -0
vn -0.90963 0 -0.41541
vn -0.98982 0 0.14231
vn -0 -1 -0
vn -0.98982 0 -0.14231
vn -0 -1 0
vn -0.90963 0 0.41541
vn -0 -1 -0
vn -0 -1 0
vn -0.98982 0 0.14231
vn -0.75575 0 0.65487
vn -0 -1 0
vn -0.90963 0 0.41541
vn -0 -1 0
vn -0.54064 0 0.84125
vn -0.75575 0 0.65487
vn -0.28174 0 0.95949
vn -0.54064 0 0.84125
vn 0 0 1
vn -0.28174 0 0.95949
vn 0.28174 0 0.95949
vn 0.54064 0 0.84125
vn 0.28174 0 0.95949
vn -0 -1 -0
vn 0.75575 0 0.65487
vn 0.54064 0 0.84125
vn -0 -1 -0
vn 0.90963 -0 0.41541
vn -0 -1 0
vn -0 -1 0
vn 0.75575 0 0.65487
vn -0 -1 0
vn -0 -1 -0
vn 0.90963 0 0.41541
vn -0.98481 0 -0.17365
vn -0.98481 0 0.17365
vn -0.98481 0 0.17365
vn -0.86603 0 -0.5
vn -0.98481 0 -0.17365
vn -0.64279 -0 -0.76604
vn -0.86603 -0 -0.5
vn -0.34201 -0 -0.93969
vn -0.64279 0 -0.76604
vn 0 -0 -1
vn -0.34201 -0 -0.93969
vn 0.34201 -0 -0.93969
vn -0 -0 -1
vn 0.64279 -0 -0.76604
vn 0.34201 -0 -0.93969
vn 0.86603 -0 -0.5
vn 0.64279 -0 -0.76604
vn 0.98481 -0 -0.17365
vn 0.86603 -0 -0.5
vn 0.98481 -0 0.17365
vn 0.98481 -0 -0.17365
vn 0.86603 -0 0.5
vn 0.98481 -0 0.17365
vn 0.64279 -0 0.76604
vn 0.86603 -0 0.5
vn 0.34201 -0 0.93969
vn 0.64279 -0 0.76604
vn 0 -0 1
vn 0.34201 -0 0.93969
vn -0.34201 -0 0.93969
vn 0 -0 1
vn -0.64279 0 0.76604
vn -0.34201 -0 0.93969
vn -0.86603 -0 0.5
vn -0.64279 -0 0.76604
vn -0.86603 0 0.5
vn 0 1 0
vn 0 1 0
vn 0 1 -0
vn 0 1 0
f 1//1 2//1 3//1
f 4//2 3//2 2//2
f 5//3 3//3 6//3
f 7//4 6//4 3//4
f 1//5 3//5 5//5
f 4//6 7//6 3//6
f 8//7 9//7 2//7
f 10//8 2//8 9//8
f 11//9 8//9 2//9
f 1//10 11//10 2//10
f 10//11 4//11 2//11
f 12//12 13//12 9//12
f 14//13 9//13 13//13
f 15//14 12//14 9//14
f 8//15 15//15 9//15
f 10//16 9//16 14//16
f 16//17 17//17 13//17
f 18//18 13//18 17//18
f 12//19 16//19 13//19
f 14//20 13//20 18//20
f 19//21 20//21 17//21
f 21//22 17//22 20//22
f 16//23 19//23 17//23
f 18//24 17//24 21//24
f 22//25 20//25 19//25
f 21//26 20//26 22//26
f 23//27 19//27 16//27
f 22//25 19//25 23//25
f 24//28 16//28 12//28
f 23//29 16//29 24//29
f 25//17 26//17 12//17
f 27//30 12//30 26//30
f 15//17 25//17 12//17
f 24//31 12//31 27//31
f 28//32 29//32 26//32
f 30//33 26//33 29//33
f 31//17 28//17 26//17
f 25//17 31//17 26//17
f 27//34 26//34 30//34
f 32//3 33//3 29//3
f 34//35 29//35 33//35
f 35//36 32//36 29//36
f 28//37 35//37 29//37
f 30//38 29//38 34//38
f 36//1 37//1 33//1
f 38//39 33//39 37//39
f 32//40 36//40 33//40
f 34//41 33//41 38//41
f 39//42 40//42 37//42
f 41//43 37//43 40//43
f 42//44 39//44 37//44
f 36//45 42//45 37//45
f 41//46 38//46 37//46
f 43//12 44//12 40//12
f 45//47 40//47 44//47
f 46//17 43//17 40//17
f 39//48 46//48 40//48
f 45//49 41//49 40//49
f 47//50 48//50 44//50
f 49//51 44//51 48//51
f 43//17 47//17 44//17
f 49//52 45//52 44//52
f 50//17 51//17 48//17
f 52//53 48//53 51//53
f 47//17 50//17 48//17
f 52//54 49//54 48//54
f 53//55 51//55 50//55
f 53//56 52//56 51//56
f 54//57 50//57 47//57
f 54//55 53//55 50//55
f 55//58 47//58 43//58
f 55//59 54//59 47//59
f 56//60 57//60 43//60
f 58//61 43//61 57//61
f 46//17 56//17 43//17
f 58//62 55//62 43//62
f 59//63 6//63 57//63
f 60//64 57//64 6//64
f 61//65 59//65 57//65
f 56//66 61//66 57//66
f 60//67 58//67 57//67
f 62//68 5//68 6//68
f 59//69 62//69 6//69
f 7//70 60//70 6//70
f 63//71 5//71 62//71
f 64//72 1//72 5//72
f 64//73 5//73 63//73
f 65//74 62//74 59//74
f 65//75 63//75 62//75
f 66//76 59//76 61//76
f 65//77 59//77 66//77
f 67//78 61//78 56//78
f 66//79 61//79 67//79
f 68//80 56//80 46//80
f 67//81 56//81 68//81
f 69//82 46//82 39//82
f 68//83 46//83 69//83
f 70//84 39//84 42//84
f 69//85 39//85 70//85
f 71//86 42//86 36//86
f 70//87 42//87 71//87
f 72//88 36//88 32//88
f 71//89 36//89 72//89
f 73//90 32//90 35//90
f 72//91 32//91 73//91
f 74//92 35//92 28//92
f 73//93 35//93 74//93
f 75//94 28//94 31//94
f 74//95 28//95 75//95
f 76//96 31//96 25//96
f 75//97 31//97 76//97
f 77//98 25//98 15//98
f 76//99 25//99 77//99
f 78//100 15//100 8//100
f 77//101 15//101 78//101
f 79//102 8//102 11//102
f 78//103 8//103 79//103
f 80//104 11//104 1//104
f 79//105 11//105 80//105
f 80//106 1//106 64//106
f 73//107 38//107 41//107
f 73//108 74//108 38//108
f 34//109 38//109 74//109
f 71//110 41//110 45//110
f 72//110 73//110 41//110
f 71//110 72//110 41//110
f 69//110 45//110 49//110
f 70//110 71//110 45//110
f 69//110 70//110 45//110
f 58//110 49//110 52//110
f 60//110 49//110 58//110
f 68//110 49//110 60//110
f 68//110 69//110 49//110
f 55//110 52//110 53//110
f 58//110 52//110 55//110
f 55//110 53//110 54//110
f 67//110 60//110 7//110
f 67//110 68//110 60//110
f 65//109 7//109 4//109
f 66//110 67//110 7//110
f 65//110 66//110 7//110
f 65//108 4//108 63//108
f 10//107 63//107 4//107
f 10//110 64//110 63//110
f 10//110 80//110 64//110
f 14//110 79//110 80//110
f 10//110 14//110 80//110
f 14//110 78//110 79//110
f 18//110 77//110 78//110
f 14//110 18//110 78//110
f 30//110 76//110 77//110
f 18//110 30//110 77//110
f 34//110 75//110 76//110
f 30//110 34//110 76//110
f 34//110 74//110 75//110
f 18//110 27//110 30//110
f 21//110 24//110 27//110
f 18//110 21//110 27//110
f 22//110 23//110 24//110
f 21//110 22//110 24//110
# Vertices: 80, normals: 110, texture coordinates: 0, faces: 160

