# File generated by ImageToStl.com - Free Image and 3D model conversion tools

o obj1
v -1.93449569 -2.29285073 0
v 1.93449569 -2.29285073 0
v 1.25 -2.7271781 0
v 1.25 -2.7271781 1.5
v -1.25 -2.7271781 0
v 1.25 -27.27282143 0
v 1.25 -27.27282143 1.5
v -2.47830105 -1.6903522 0
v 2.47830105 -1.6903522 0
v 1.93485355 -2.2926712 1.5
v 0.46337065 -1.42654908 0
v 2.84066081 -0.96464682 0
v 2.47828317 -1.69059527 1.5
v -0.46337065 -1.42654908 0
v 1.21333635 -0.88187641 0
v 2.99516892 -0.16922566 0
v 2.84057426 -0.96495473 1.5
v 1.5 0 0
v 2.93087149 0.63968492 0
v 2.99524808 -0.16878591 1.5
v 1.21333635 0.88187641 0
v 2.65227556 1.40182328 0
v 2.93099976 0.63971955 1.5
v -2.18039298 2.06052995 0
v 2.18039298 2.06052995 0
v 2.65252471 1.40146792 1.5
v 0.46337065 1.42654908 0
v -1.54860938 2.56925583 0
v 1.54860938 2.56925583 0
v 2.18017721 2.06078315 1.5
v -0.80321687 2.89037728 0
v 0.80321687 2.89037728 0
v 1.54848063 2.56947613 1.5
v 0 3 0
v 0.80360603 2.89036632 1.5
v -4.81E-06 3 1.5
v -0.80361408 2.89036417 1.5
v -1.54848802 2.5694716 1.5
v -0.46337065 1.42654908 0
v -2.65227556 1.40182328 0
v -2.18018293 2.06077695 1.5
v -1.21333635 0.88187641 0
v -2.93087149 0.63968492 0
v -2.65252876 1.40146041 1.5
v -1.5 -0 0
v -2.99516892 -0.16922566 0
v -2.93100142 0.63971114 1.5
v -1.21333635 -0.88187641 0
v -2.84066081 -0.96464682 0
v -2.9952476 -0.16879445 1.5
v -2.84057164 -0.9649629 1.5
v -2.4782784 -1.6906023 1.5
v -1.93484819 -2.29267597 1.5
v -1.25 -27.27282143 0
v -1.25 -2.7271781 1.5
v 1.93449569 -27.70714951 0
v -1.93449569 -27.70714951 0
v -1.25 -27.27282143 1.5
v 2.47830105 -28.30964851 0
v -2.47830105 -28.30964851 0
v -1.93484712 -27.70732307 1.5
v -0.46337065 -28.57345009 0
v -2.84066081 -29.03535271 0
v -2.47827721 -28.30939674 1.5
v 0.46337065 -28.57345009 0
v -1.21333635 -29.11812401 0
v -2.99516892 -29.83077431 0
v -2.84057069 -29.03503418 1.5
v -1.5 -30 0
v -2.93087149 -30.63968468 0
v -2.99524736 -29.83119774 1.5
v -1.21333635 -30.88187599 0
v -2.65227556 -31.40182304 0
v -2.93100286 -30.63970375 1.5
v 2.18039298 -32.06053162 0
v -2.18039298 -32.06053162 0
v -2.65252852 -31.40146065 1.5
v -0.46337065 -31.42654991 0
v 1.54860938 -32.56925583 0
v -1.54860938 -32.56925583 0
v -2.18017864 -32.06078339 1.5
v 0.80321687 -32.89037704 0
v -0.80321687 -32.89037704 0
v -1.54848278 -32.56947327 1.5
v -0 -33 0
v -0.80361009 -32.8903656 1.5
v 8.82E-06 -33 1.5
v 0.8036105 -32.8903656 1.5
v 1.54848528 -32.56947327 1.5
v 0.46337065 -31.42654991 0
v 2.65227556 -31.40182304 0
v 2.18018341 -32.06077576 1.5
v 1.21333635 -30.88187599 0
v 2.93087149 -30.63968468 0
v 2.65253186 -31.40145493 1.5
v 1.5 -30 0
v 2.99516892 -29.83077431 0
v 2.93100333 -30.63970375 1.5
v 1.21333635 -29.11812401 0
v 2.84066081 -29.03535271 0
v 2.99524736 -29.83119774 1.5
v 2.84057021 -29.03503418 1.5
v 2.47827625 -28.30939484 1.5
v 1.93484581 -27.70732307 1.5
v 1.5 -0 2
v 1.21333635 0.88187641 2
v 1.21333635 -0.88187641 2
v 0.46337065 -1.42654908 2
v -0.46337065 -1.42654908 2
v -1.21333635 -0.88187641 2
v -1.5 0 2
v -1.21333635 0.88187641 2
v -0.46337065 1.42654908 2
v 0.46337065 1.42654908 2
v 1.5 -30 2
v 1.21333635 -29.11812401 2
v 1.21333635 -30.88187599 2
v 0.46337065 -31.42654991 2
v -0.46337065 -31.42654991 2
v -1.21333635 -30.88187599 2
v -1.5 -30 2
v -1.21333635 -29.11812401 2
v -0.46337065 -28.57345009 2
v 0.46337065 -28.57345009 2
v 2.47120881 0.37832156 2
v 2.47822118 -0.32857653 2
v 2.26641726 1.05494022 2
v 1.8800832 1.64775157 2
v -2.26664829 1.05444372 2
v -1.88042963 1.64735627 2
v -2.47129488 0.37775794 2
v -2.47814298 -0.32916394 2
v -2.28669858 -1.01035583 2
v -1.91271448 -1.60977149 2
v 2.2869451 -1.00979674 2
v 1.91312742 -1.60928023 2
v 2.47797132 -29.66954231 2
v 2.47150993 -30.3763485 2
v 2.28621483 -28.98855209 2
v 1.91203856 -28.38942719 2
v -2.28803563 -28.99267769 2
v -1.91492581 -28.39286804 2
v -2.47856307 -29.67401123 2
v -2.47082734 -30.38080597 2
v -2.26539707 -31.05712891 2
v -1.87855542 -31.64949417 2
v 2.26729989 -31.05304146 2
v 1.88152695 -31.64610291 2
v -0.75 -27.61515236 2
v 0.75 -27.61515236 2
v 0.75 -2.38484812 2
v 1.0180043 -27.42599297 1.92210627
v -0.75 -2.38484812 2
v 1.38535142 -2.08086634 2
v 1.02057803 -2.57575679 1.92046106
v -1.38811457 -27.92087936 2
v 1.38397479 -27.91824913 2
v 1.10464382 -27.36772346 1.85245955
v 2.22346139 -28.2114296 1.85355341
v 2.80855823 -29.49525452 1.85355341
v 2.7070868 -30.90246773 1.85355341
v 1.34599948 -32.10667419 2
v 1.94385314 -32.08906555 1.85355341
v -1.34219837 -32.10910034 2
v 0.70188659 -32.39935303 2
v -0.69755864 -32.40061569 2
v 0.00225416 -32.5 2
v 0.70543343 -32.76498413 1.85355341
v -0.70543343 -32.76498413 1.85355341
v -1.94385314 -32.08906555 1.85355341
v -2.7070868 -30.90246773 1.85355341
v -2.80855823 -29.49525452 1.85355341
v -2.22346139 -28.2114296 1.85355341
v -1.0180043 -27.42599297 1.92210627
v -1.10464382 -27.36772346 1.85245955
v -1.02057803 -2.57575679 1.92046106
v -1.3847934 -2.0812242 2
v -1.10490465 -2.63244939 1.85219693
v -2.22352982 -1.788486 1.85355341
v -2.80857301 -0.50466233 1.85355341
v -2.70706773 0.90252483 1.85355341
v -1.34449458 2.10763669 2
v -1.94382644 2.08909202 1.85355341
v 1.34407043 2.1079073 2
v -0.70005709 2.39988852 2
v 0.6995967 2.40002298 2
v -0.00023093 2.5 2
v -0.70542169 2.76498604 1.85355341
v 0.70542169 2.76498604 1.85355341
v 1.94382644 2.08909202 1.85355341
v 2.70706773 0.90252483 1.85355341
v 2.80857301 -0.50466233 1.85355341
v 2.22352982 -1.788486 1.85355341
v 1.10490465 -2.63244939 1.85219693
v -1.19245064 -27.31000328 1.73288929
v -1.19338119 -2.69060111 1.73111272
v 1.19338119 -2.69060111 1.73111272
v 1.19245064 -27.31000328 1.73288929
vn 0 0 -1
vn 0.53577 -0.84437 -0
vn 1 0 0
vn 0.74234 -0.67002 -0.0001
vn 0.53573 -0.84439 -3E-05
vn 0.89467 -0.44673 -6E-05
vn 0.74234 -0.67003 -0.0001
vn 0.98165 -0.19068 2E-05
vn 0.89469 -0.44669 -4E-05
vn 0.99686 0.07924 -8E-05
vn 0.98165 -0.19071 0
vn 0.93922 0.34333 -9E-05
vn 0.99686 0.07922 -9E-05
vn 0.81293 0.58236 0
vn 0.93921 0.34335 -7E-05
vn 0.62717 0.77888 -4E-05
vn 0.81291 0.58239 2E-05
vn 0.39565 0.9184 -0.0001
vn 0.6272 0.77886 -6E-05
vn 0.13523 0.99081 -3E-05
vn 0.39565 0.9184 -0.0001
vn -0.13523 0.99081 -0
vn 0.13517 0.99082 0
vn -0.39565 0.9184 -0.0001
vn -0.13518 0.99082 -3E-05
vn -0.62717 0.77888 -6E-05
vn -0.39565 0.9184 -0.0001
vn -0.81293 0.58236 2E-05
vn -0.6272 0.77886 -4E-05
vn -0.93922 0.34333 -8E-05
vn -0.81291 0.58238 0
vn -0.99686 0.07924 -9E-05
vn -0.93921 0.34335 -9E-05
vn -0.98165 -0.19068 0
vn -0.99686 0.07921 -8E-05
vn -0.89467 -0.44673 -4E-05
vn -0.98165 -0.19071 2E-05
vn -0.74234 -0.67002 -0.0001
vn -0.89469 -0.44669 -6E-05
vn -0.53577 -0.84437 -3E-05
vn -0.74233 -0.67003 -0.0001
vn -1 0 0
vn -0.53573 -0.84439 0
vn -0.53577 0.84437 0
vn -0.74234 0.67002 -0.0001
vn -0.53572 0.84439 -3E-05
vn -0.89467 0.44673 -6E-05
vn -0.74233 0.67003 -0.0001
vn -0.98165 0.19068 2E-05
vn -0.89469 0.44669 -4E-05
vn -0.99686 -0.07924 -7E-05
vn -0.98165 0.19071 0
vn -0.93922 -0.34333 -9E-05
vn -0.99686 -0.07921 -9E-05
vn -0.81293 -0.58236 0
vn -0.93921 -0.34335 -8E-05
vn -0.62717 -0.77888 -4E-05
vn -0.81291 -0.58239 2E-05
vn -0.39565 -0.9184 -0.0001
vn -0.6272 -0.77886 -6E-05
vn -0.13523 -0.99081 -3E-05
vn -0.39565 -0.9184 -0.0001
vn 0.13523 -0.99081 -0
vn -0.13517 -0.99082 0
vn 0.39565 -0.9184 -0.0001
vn 0.13518 -0.99082 -3E-05
vn 0.62717 -0.77888 -6E-05
vn 0.39565 -0.9184 -0.0001
vn 0.81293 -0.58236 2E-05
vn 0.6272 -0.77886 -4E-05
vn 0.93922 -0.34333 -8E-05
vn 0.81291 -0.58238 0
vn 0.99686 -0.07924 -9E-05
vn 0.93921 -0.34334 -9E-05
vn 0.98165 0.19068 0
vn 0.99686 -0.07921 -7E-05
vn 0.89467 0.44673 -4E-05
vn 0.98165 0.19071 2E-05
vn 0.74234 0.67002 -0.0001
vn 0.89469 0.4467 -6E-05
vn 0.53577 0.84437 -3E-05
vn 0.74233 0.67003 -0.0001
vn 0.53572 0.84439 0
vn -0.95102 0.30914 0
vn -0.95102 -0.30914 -0
vn -0.95102 -0.30914 -0
vn -0.58764 0.80912 0
vn -0.95102 0.30914 -0
vn 0 1 0
vn -0.58764 0.80912 -0
vn 0.58764 0.80912 0
vn 0.95102 0.30914 0
vn 0.58764 0.80912 -0
vn 0.95102 -0.30914 0
vn 0.95102 0.30914 -0
vn 0.58764 -0.80912 0
vn 0.95102 -0.30914 0
vn 0 -1 0
vn -0.58764 -0.80912 -0
vn -0.95102 0.30914 0
vn -0.58764 0.80912 0
vn 0.58764 0.80912 0
vn 0.95102 0.30914 0
vn 0 -1 0
vn 0 0 1
vn 0.27909 0 0.96026
vn 0.11453 -0.23937 0.96415
vn 0.28205 3E-05 0.9594
vn 0.11325 0.23688 0.96491
vn 0.3653 0.4094 0.83603
vn 0.38348 0.4156 0.82475
vn 0.3208 0.20035 0.92571
vn 0.24405 0.32481 0.91375
vn 0.35805 0.10082 0.92824
vn 0.43991 0.20049 0.87538
vn 0.40666 -0.00372 0.91357
vn 0.34623 -0.10448 0.93231
vn 0.47175 -0.03402 0.88108
vn 0.38147 -0.24814 0.89045
vn 0.23639 -0.27486 0.93197
vn 0.377 -0.24249 0.89391
vn 0.2213 -0.48703 0.84488
vn 0.05335 -0.37084 0.92716
vn 0.19801 -0.3628 0.91059
vn -0.05275 -0.37143 0.92696
vn -0 -0.48371 0.87523
vn -0.16494 -0.36475 0.91638
vn -0.236 -0.27541 0.93191
vn -0.22799 -0.41772 0.87951
vn -0.37227 -0.24311 0.89572
vn -0.34593 -0.10507 0.93236
vn -0.38141 -0.24533 0.89126
vn -0.51777 -0.00567 0.8555
vn -0.35781 0.10006 0.92842
vn -0.41908 -0.03022 0.90745
vn -0.32163 0.20007 0.92549
vn -0.43984 0.20045 0.87542
vn -0.26331 0.29389 0.91886
vn -0.1134 0.23669 0.96495
vn -0.28671 0.38134 0.87885
vn -0.38299 0.41623 0.82467
vn -0.28203 0 0.95941
vn -0.27907 3E-05 0.96027
vn -0.11451 -0.2394 0.96414
vn -0.36604 -0.40988 0.83547
vn -0.38607 -0.4167 0.82299
vn -0.32099 -0.20027 0.92567
vn -0.24387 -0.3247 0.91383
vn -0.35798 -0.10061 0.92829
vn -0.4399 -0.20046 0.87539
vn -0.40693 0.00394 0.91345
vn -0.34612 0.10468 0.93233
vn -0.4716 0.03402 0.88116
vn -0.38178 0.24869 0.89017
vn -0.23623 0.27506 0.93195
vn -0.37674 0.24233 0.89406
vn -0.22139 0.48817 0.8442
vn -0.05308 0.37109 0.92708
vn -0.1978 0.36242 0.91078
vn 0.05302 0.37115 0.92706
vn 0 0.4837 0.87523
vn 0.16544 0.365 0.91619
vn 0.23619 0.27513 0.93194
vn 0.22788 0.41754 0.87962
vn 0.37317 0.24319 0.89532
vn 0.34609 0.10475 0.93234
vn 0.38105 0.24511 0.89147
vn 0.5192 0.00515 0.85464
vn 0.35795 -0.10051 0.92831
vn 0.41849 0.03019 0.90772
vn 0.32111 -0.20023 0.92563
vn 0.43989 -0.20046 0.8754
vn 0.26329 -0.29466 0.91862
vn 0.38601 -0.41679 0.82297
vn 0.28655 -0.38122 0.87895
vn -0.42514 -0.67009 0.60846
vn -0.9708 0 0.23989
vn -0.97128 -2E-05 0.23795
vn -0.61644 -0.74033 0.26818
vn 0.51787 -0.81624 0.25605
vn 0.97128 0 0.23795
vn 0.7008 -0.63253 0.32983
vn 0.50758 -0.57108 0.64516
vn 0.50511 -0.67037 0.54356
vn 0.79346 -0.39615 0.46204
vn 0.93021 -0.18071 0.31947
vn 0.77261 -0.35208 0.52831
vn 0.8542 0.06788 0.5155
vn 0.88931 0.32511 0.32161
vn 0.86344 0.06228 0.50059
vn 0.66707 0.4779 0.57152
vn 0.5907 0.73354 0.33615
vn 0.74651 0.48018 0.46059
vn 0.30813 0.71525 0.62728
vn 0.12598 0.92344 0.36247
vn 0.4378 0.80216 0.40605
vn -0.12598 0.92344 0.36246
vn 0 0.8328 0.55358
vn -0.36273 0.842 0.39933
vn -0.5907 0.73353 0.33615
vn -0.4004 0.73362 0.54907
vn -0.72802 0.52157 0.44492
vn -0.88931 0.32511 0.32161
vn -0.7104 0.45696 0.53527
vn -0.86511 0.06874 0.49684
vn -0.93021 -0.18072 0.31947
vn -0.85717 0.06183 0.51132
vn -0.74584 -0.37238 0.55231
vn -0.70079 -0.63254 0.32983
vn -0.8004 -0.36474 0.47574
vn -0.51757 0.81577 0.25814
vn -0.7008 0.63254 0.32981
vn -0.50746 0.56882 0.64724
vn -0.50502 0.6704 0.54361
vn -0.79344 0.39614 0.46209
vn -0.93021 0.18072 0.31947
vn -0.77261 0.35211 0.5283
vn -0.85418 -0.06787 0.51553
vn -0.88931 -0.3251 0.32161
vn -0.86345 -0.06226 0.50058
vn -0.66705 -0.47789 0.57154
vn -0.5907 -0.73353 0.33616
vn -0.74652 -0.48017 0.46058
vn -0.30812 -0.71524 0.62729
vn -0.12598 -0.92344 0.36247
vn -0.43781 -0.80215 0.40604
vn 0.12598 -0.92344 0.36247
vn -0 -0.83279 0.55358
vn 0.36273 -0.842 0.39933
vn 0.5907 -0.73353 0.33616
vn 0.4004 -0.73362 0.54908
vn 0.72803 -0.52157 0.44491
vn 0.88931 -0.3251 0.32161
vn 0.71041 -0.45694 0.53528
vn 0.86513 -0.06874 0.49682
vn 0.93021 0.18072 0.31947
vn 0.85715 -0.06181 0.51134
vn 0.74586 0.37239 0.55228
vn 0.7008 0.63254 0.32981
vn 0.80037 0.36476 0.47577
vn 0.42516 0.67013 0.60841
vn 0.61559 0.74026 0.27031
vn 0.9708 -2E-05 0.23989
vn -0.80601 1E-05 0.5919
vn -0.62653 0 0.7794
vn -0.80742 -0 0.58998
vn 0.4635 0.61547 0.63747
vn 0.80601 -0 0.5919
vn 0.62654 -1E-05 0.77939
vn 0.6292 0 0.77725
vn 0.80742 1E-05 0.58998
vn -0.62919 -1E-05 0.77725
vn -0.46449 -0.61668 0.63557
f 1//1 2//1 3//1
f 4//2 3//2 2//2
f 5//1 1//1 3//1
f 6//1 5//1 3//1
f 7//3 6//3 3//3
f 7//3 3//3 4//3
f 8//1 9//1 2//1
f 10//4 2//4 9//4
f 1//1 8//1 2//1
f 10//5 4//5 2//5
f 11//1 12//1 9//1
f 13//6 9//6 12//6
f 14//1 9//1 8//1
f 14//1 11//1 9//1
f 13//7 10//7 9//7
f 15//1 16//1 12//1
f 17//8 12//8 16//8
f 11//1 15//1 12//1
f 17//9 13//9 12//9
f 18//1 19//1 16//1
f 20//10 16//10 19//10
f 15//1 18//1 16//1
f 20//11 17//11 16//11
f 21//1 22//1 19//1
f 23//12 19//12 22//12
f 21//1 19//1 18//1
f 23//13 20//13 19//13
f 24//1 25//1 22//1
f 26//14 22//14 25//14
f 27//1 24//1 22//1
f 21//1 27//1 22//1
f 26//15 23//15 22//15
f 28//1 29//1 25//1
f 30//16 25//16 29//16
f 24//1 28//1 25//1
f 30//17 26//17 25//17
f 31//1 32//1 29//1
f 33//18 29//18 32//18
f 28//1 31//1 29//1
f 33//19 30//19 29//19
f 31//1 34//1 32//1
f 35//20 32//20 34//20
f 35//21 33//21 32//21
f 36//22 34//22 31//22
f 36//23 35//23 34//23
f 37//24 31//24 28//24
f 37//25 36//25 31//25
f 38//26 28//26 24//26
f 38//27 37//27 28//27
f 39//1 40//1 24//1
f 41//28 24//28 40//28
f 27//1 39//1 24//1
f 41//29 38//29 24//29
f 42//1 43//1 40//1
f 44//30 40//30 43//30
f 39//1 42//1 40//1
f 44//31 41//31 40//31
f 45//1 46//1 43//1
f 47//32 43//32 46//32
f 42//1 45//1 43//1
f 47//33 44//33 43//33
f 48//1 49//1 46//1
f 50//34 46//34 49//34
f 45//1 48//1 46//1
f 50//35 47//35 46//35
f 14//1 8//1 49//1
f 51//36 49//36 8//36
f 48//1 14//1 49//1
f 51//37 50//37 49//37
f 52//38 8//38 1//38
f 52//39 51//39 8//39
f 53//40 1//40 5//40
f 53//41 52//41 1//41
f 6//1 54//1 5//1
f 55//42 5//42 54//42
f 53//43 5//43 55//43
f 56//1 57//1 54//1
f 58//44 54//44 57//44
f 6//1 56//1 54//1
f 58//42 55//42 54//42
f 59//1 60//1 57//1
f 61//45 57//45 60//45
f 56//1 59//1 57//1
f 61//46 58//46 57//46
f 62//1 63//1 60//1
f 64//47 60//47 63//47
f 65//1 60//1 59//1
f 65//1 62//1 60//1
f 64//48 61//48 60//48
f 66//1 67//1 63//1
f 68//49 63//49 67//49
f 62//1 66//1 63//1
f 68//50 64//50 63//50
f 69//1 70//1 67//1
f 71//51 67//51 70//51
f 66//1 69//1 67//1
f 71//52 68//52 67//52
f 72//1 73//1 70//1
f 74//53 70//53 73//53
f 69//1 72//1 70//1
f 74//54 71//54 70//54
f 75//1 76//1 73//1
f 77//55 73//55 76//55
f 78//1 75//1 73//1
f 72//1 78//1 73//1
f 77//56 74//56 73//56
f 79//1 80//1 76//1
f 81//57 76//57 80//57
f 75//1 79//1 76//1
f 81//58 77//58 76//58
f 82//1 83//1 80//1
f 84//59 80//59 83//59
f 79//1 82//1 80//1
f 84//60 81//60 80//60
f 82//1 85//1 83//1
f 86//61 83//61 85//61
f 86//62 84//62 83//62
f 87//63 85//63 82//63
f 87//64 86//64 85//64
f 88//65 82//65 79//65
f 88//66 87//66 82//66
f 89//67 79//67 75//67
f 89//68 88//68 79//68
f 90//1 91//1 75//1
f 92//69 75//69 91//69
f 78//1 90//1 75//1
f 92//70 89//70 75//70
f 93//1 94//1 91//1
f 95//71 91//71 94//71
f 90//1 93//1 91//1
f 95//72 92//72 91//72
f 96//1 97//1 94//1
f 98//73 94//73 97//73
f 93//1 96//1 94//1
f 98//74 95//74 94//74
f 99//1 100//1 97//1
f 101//75 97//75 100//75
f 99//1 97//1 96//1
f 101//76 98//76 97//76
f 65//1 59//1 100//1
f 102//77 100//77 59//77
f 99//1 65//1 100//1
f 102//78 101//78 100//78
f 103//79 59//79 56//79
f 103//80 102//80 59//80
f 104//81 56//81 6//81
f 104//82 103//82 56//82
f 7//83 104//83 6//83
f 105//84 18//84 15//84
f 106//85 21//85 18//85
f 106//86 18//86 105//86
f 107//87 15//87 11//87
f 107//88 105//88 15//88
f 108//89 11//89 14//89
f 107//90 11//90 108//90
f 109//91 14//91 48//91
f 108//89 14//89 109//89
f 110//92 48//92 45//92
f 109//93 48//93 110//93
f 111//94 45//94 42//94
f 110//95 45//95 111//95
f 112//96 42//96 39//96
f 111//97 42//97 112//97
f 113//98 39//98 27//98
f 112//96 39//96 113//96
f 114//99 27//99 21//99
f 113//98 27//98 114//98
f 114//99 21//99 106//99
f 115//100 96//100 93//100
f 116//85 99//85 96//85
f 116//85 96//85 115//85
f 117//101 93//101 90//101
f 117//100 115//100 93//100
f 118//89 90//89 78//89
f 117//101 90//101 118//101
f 119//102 78//102 72//102
f 118//89 78//89 119//89
f 120//103 72//103 69//103
f 119//102 72//102 120//102
f 121//97 69//97 66//97
f 120//103 69//103 121//103
f 122//96 66//96 62//96
f 121//97 66//97 122//97
f 123//104 62//104 65//104
f 122//96 62//96 123//96
f 124//99 65//99 99//99
f 123//104 65//104 124//104
f 124//99 99//99 116//99
f 125//105 106//105 105//105
f 126//105 105//105 107//105
f 126//105 125//105 105//105
f 127//105 114//105 106//105
f 125//105 127//105 106//105
f 128//105 113//105 114//105
f 127//105 128//105 114//105
f 129//105 112//105 113//105
f 130//105 129//105 113//105
f 128//105 130//105 113//105
f 131//105 111//105 112//105
f 129//105 131//105 112//105
f 132//105 110//105 111//105
f 131//105 132//105 111//105
f 133//105 109//105 110//105
f 132//105 133//105 110//105
f 134//105 108//105 109//105
f 133//105 134//105 109//105
f 135//105 107//105 108//105
f 136//105 108//105 134//105
f 136//105 135//105 108//105
f 135//105 126//105 107//105
f 137//105 116//105 115//105
f 138//105 115//105 117//105
f 138//105 137//105 115//105
f 139//105 124//105 116//105
f 137//105 139//105 116//105
f 140//105 123//105 124//105
f 139//105 140//105 124//105
f 141//105 122//105 123//105
f 142//105 123//105 140//105
f 142//105 141//105 123//105
f 143//105 121//105 122//105
f 141//105 143//105 122//105
f 144//105 120//105 121//105
f 143//105 144//105 121//105
f 145//105 119//105 120//105
f 144//105 145//105 120//105
f 146//105 118//105 119//105
f 145//105 146//105 119//105
f 147//105 117//105 118//105
f 148//105 147//105 118//105
f 146//105 148//105 118//105
f 147//105 138//105 117//105
f 149//105 150//105 151//105
f 152//106 151//106 150//106
f 153//105 149//105 151//105
f 154//105 153//105 151//105
f 155//107 154//107 151//107
f 155//108 151//108 152//108
f 156//105 157//105 150//105
f 152//109 150//109 157//109
f 149//105 156//105 150//105
f 156//105 140//105 157//105
f 158//110 157//110 140//110
f 152//111 157//111 158//111
f 159//112 140//112 139//112
f 156//105 142//105 140//105
f 158//113 140//113 159//113
f 160//114 139//114 137//114
f 159//115 139//115 160//115
f 160//116 137//116 138//116
f 161//117 138//117 147//117
f 160//118 138//118 161//118
f 161//119 147//119 148//119
f 146//105 162//105 148//105
f 163//120 148//120 162//120
f 161//121 148//121 163//121
f 164//105 165//105 162//105
f 163//122 162//122 165//122
f 146//105 164//105 162//105
f 166//105 167//105 165//105
f 168//123 165//123 167//123
f 164//105 166//105 165//105
f 163//124 165//124 168//124
f 169//125 167//125 166//125
f 168//126 167//126 169//126
f 169//127 166//127 164//127
f 170//128 164//128 146//128
f 169//129 164//129 170//129
f 170//130 146//130 145//130
f 171//131 145//131 144//131
f 170//132 145//132 171//132
f 171//133 144//133 143//133
f 172//134 143//134 141//134
f 171//135 143//135 172//135
f 173//136 141//136 142//136
f 172//137 141//137 173//137
f 173//138 142//138 156//138
f 174//139 156//139 149//139
f 173//140 156//140 175//140
f 174//141 175//141 156//141
f 176//142 149//142 153//142
f 176//143 174//143 149//143
f 154//105 177//105 153//105
f 176//144 153//144 177//144
f 154//105 134//105 177//105
f 178//145 177//145 134//145
f 176//146 177//146 178//146
f 179//147 134//147 133//147
f 154//105 136//105 134//105
f 179//148 178//148 134//148
f 180//149 133//149 132//149
f 179//150 133//150 180//150
f 180//151 132//151 131//151
f 181//152 131//152 129//152
f 180//153 131//153 181//153
f 181//154 129//154 130//154
f 128//105 182//105 130//105
f 183//155 130//155 182//155
f 181//156 130//156 183//156
f 184//105 185//105 182//105
f 183//157 182//157 185//157
f 128//105 184//105 182//105
f 186//105 187//105 185//105
f 188//158 185//158 187//158
f 184//105 186//105 185//105
f 183//159 185//159 188//159
f 189//160 187//160 186//160
f 188//161 187//161 189//161
f 189//162 186//162 184//162
f 190//163 184//163 128//163
f 189//164 184//164 190//164
f 190//165 128//165 127//165
f 191//166 127//166 125//166
f 190//167 127//167 191//167
f 191//168 125//168 126//168
f 192//169 126//169 135//169
f 191//170 126//170 192//170
f 193//171 135//171 136//171
f 192//172 135//172 193//172
f 193//173 136//173 154//173
f 194//174 154//174 155//174
f 193//175 154//175 194//175
f 179//176 53//176 55//176
f 195//177 55//177 58//177
f 196//178 55//178 195//178
f 179//179 55//179 196//179
f 197//180 4//180 10//180
f 197//181 7//181 4//181
f 193//182 10//182 13//182
f 197//183 10//183 194//183
f 193//184 194//184 10//184
f 193//185 13//185 17//185
f 192//186 17//186 20//186
f 192//187 193//187 17//187
f 192//188 20//188 23//188
f 191//189 23//189 26//189
f 191//190 192//190 23//190
f 191//191 26//191 30//191
f 190//192 30//192 33//192
f 190//193 191//193 30//193
f 190//194 33//194 35//194
f 189//195 35//195 36//195
f 189//196 190//196 35//196
f 188//197 36//197 37//197
f 188//198 189//198 36//198
f 188//199 37//199 38//199
f 183//200 38//200 41//200
f 183//201 188//201 38//201
f 183//202 41//202 44//202
f 181//203 44//203 47//203
f 181//204 183//204 44//204
f 181//205 47//205 50//205
f 180//206 50//206 51//206
f 180//207 181//207 50//207
f 180//208 51//208 52//208
f 179//209 52//209 53//209
f 179//210 180//210 52//210
f 195//211 58//211 61//211
f 173//212 61//212 64//212
f 175//213 195//213 61//213
f 173//214 175//214 61//214
f 173//215 64//215 68//215
f 172//216 68//216 71//216
f 172//217 173//217 68//217
f 172//218 71//218 74//218
f 171//219 74//219 77//219
f 171//220 172//220 74//220
f 171//221 77//221 81//221
f 170//222 81//222 84//222
f 170//223 171//223 81//223
f 170//224 84//224 86//224
f 169//225 86//225 87//225
f 169//226 170//226 86//226
f 168//227 87//227 88//227
f 168//228 169//228 87//228
f 168//229 88//229 89//229
f 163//230 89//230 92//230
f 163//231 168//231 89//231
f 163//232 92//232 95//232
f 161//233 95//233 98//233
f 161//234 163//234 95//234
f 161//235 98//235 101//235
f 160//236 101//236 102//236
f 160//237 161//237 101//237
f 160//238 102//238 103//238
f 159//239 103//239 104//239
f 159//240 160//240 103//240
f 159//241 104//241 7//241
f 198//242 159//242 7//242
f 197//243 198//243 7//243
f 196//244 195//244 175//244
f 178//245 175//245 174//245
f 178//246 196//246 175//246
f 198//247 158//247 159//247
f 194//248 158//248 198//248
f 155//249 152//249 158//249
f 194//250 155//250 158//250
f 197//251 194//251 198//251
f 176//252 178//252 174//252
f 179//253 196//253 178//253
# Vertices: 198, normals: 253, texture coordinates: 0, faces: 400

