# File generated by ImageToStl.com - Free Image and 3D model conversion tools

o obj1
v -1.5 24.5 0
v 0 24.5 0
v 0 1 0
v 0 1 25
v -1.5 1.5 0
v -16.5 1.5 0
v -0.07622161 0.61735845 0
v -0.07622161 0.61735845 25
v -1.5 28.36222839 0.61165637
v 0 16.11824989 11.28666401
v 0 23 5
v 0 21.0361805 10.49973011
v 0 18.42643356 12.96383381
v 0 23.28666306 4.11824894
v 0 24.03616714 3.57356668
v 0 24.96383286 3.57356668
v 0 28.36222839 0.61165637
v 0 17.88175011 11.28666401
v 0 17 11
v 0 18.42643356 12.03616619
v -1.5 24.03616714 3.57356668
v -1.5 27.9638195 10.49973011
v -1.5 26 5
v -1.5 25.71333694 4.11824894
v -1.5 24.96383286 3.57356668
v -8.11824894 1.5 11.28666401
v -1.5 24.5 25
v -1.5 1.5 25
v -7.57356644 1.5 12.03616619
v -1.5 16.11824989 13.71333599
v -1.5 21.0361805 10.49973011
v -1.5 22.49972916 9.0361805
v -1.5 23 5
v -1.5 20.5 12.5
v -1.5 17.88175011 11.28666401
v -1.5 23.28666306 4.11824894
v -1.5 16.11824989 11.28666401
v -1.5 17 11
v -1.5 15.57356644 12.03616619
v -1.5 15.57356644 12.96383381
v -1 -0 0
v -16.5 0 0
v -20.36222839 0 0.61165637
v -0.61735845 0.07622161 0
v -0.29289323 0.29289323 0
v -20.36222839 1.5 0.61165637
v -16.96383286 1.5 3.57356668
v -10.42643356 1.5 12.96383381
v -13.0361805 1.5 10.49973011
v -15 1.5 5
v -9.88175106 1.5 11.28666401
v -9 1.5 11
v -10.42643356 1.5 12.03616619
v -15.28666401 1.5 4.11824894
v -16.03616714 1.5 3.57356668
v -16.03616714 0 3.57356668
v -18 0 5
v -19.9638195 0 10.49973011
v -17.71333694 0 4.11824894
v -16.96383286 0 3.57356668
v -1 -0 25
v -7.57356644 0 12.96383381
v -13.0361805 0 10.49973011
v -12.5 0 12.5
v -9.88175106 0 11.28666401
v -14.49973011 0 9.0361805
v -15 0 5
v -8.11824894 0 11.28666401
v -9 0 11
v -7.57356644 0 12.03616619
v -15.28666401 0 4.11824894
v -0.61735845 0.07622161 25
v -0.29289323 0.29289323 25
v -16.5 0 25
v -8.11824894 0 13.71333599
v -16.5 1.5 25
v -20.36222839 1.5 24.38834381
v -15 0 20
v -13.0361805 0 14.50026989
v -10.42643356 0 12.03616619
v -15.28666401 0 20.88175011
v -16.03616714 0 21.42643356
v -16.96383286 0 21.42643356
v -20.36222839 0 24.38834381
v -9 0 14
v -9.88175106 0 13.71333599
v -10.42643356 0 12.96383381
v -16.03616714 1.5 21.42643356
v -19.9638195 1.5 14.50026989
v -18 1.5 20
v -17.71333694 1.5 20.88175011
v -16.96383286 1.5 21.42643356
v 0 24.5 25
v -13.0361805 1.5 14.50026989
v -12.5 1.5 12.5
v -9.88175106 1.5 13.71333599
v -14.49973011 1.5 15.9638195
v -15 1.5 20
v -15.28666401 1.5 20.88175011
v -9 1.5 14
v -8.11824894 1.5 13.71333599
v -7.57356644 1.5 12.96383381
v 0 28.36222839 24.38834381
v -1.5 28.36222839 24.38834381
v -1.5 24.96383286 21.42643356
v -1.5 18.42643356 12.03616619
v -1.5 21.0361805 14.50026989
v -1.5 23 20
v -1.5 17 14
v -1.5 17.88175011 13.71333599
v -1.5 18.42643356 12.96383381
v -1.5 23.28666306 20.88175011
v -1.5 24.03616714 21.42643356
v 0 24.03616714 21.42643356
v 0 26 20
v 0 27.9638195 14.50026989
v 0 25.71333694 20.88175011
v 0 24.96383286 21.42643356
v 0 21.0361805 14.50026989
v 0 22.49972916 15.9638195
v 0 23 20
v 0 20.5 12.5
v 0 17.88175011 13.71333599
v 0 17 14
v 0 16.11824989 13.71333599
v 0 15.57356644 12.96383381
v 0 15.57356644 12.03616619
v 0 23.28666306 20.88175011
v -14.49973011 0 15.9638195
v -16.03616714 0 18.57356644
v -16.5 0 16.5
v -15.28666401 0 19.11824989
v -17.71333694 0 19.11824989
v -18.50027084 0 15.9638195
v -16.5 1.5 16.5
v -16.96383286 0 18.57356644
v -19.9638195 0 14.50026989
v -18.50027084 1.5 15.9638195
v -18 0 20
v -20.5 0 12.5
v -20.5 1.5 12.5
v -22.57356644 0 12.96383381
v -23.84673882 0 22.61305809
v -18.50027084 0 9.0361805
v -19.9638195 1.5 10.49973011
v -16.96383286 0 6.42643356
v -16.5 0 8.5
v -18.50027084 1.5 9.0361805
v -17.71333694 0 5.88175106
v -15.28666401 0 5.88175106
v -16.5 1.5 8.5
v -16.03616714 0 6.42643356
v -14.49973011 1.5 9.0361805
v -26.61228371 0 19.84773064
v -24.88175011 0 13.71333599
v -24 0 14
v -24 1.5 14
v -23.11824989 0 13.71333599
v -23.11824989 1.5 13.71333599
v -25.42643356 0 12.96383381
v -24.88175011 1.5 13.71333599
v -25.42643356 0 12.03616619
v -25.42643356 1.5 12.96383381
v -23.84673882 0 2.38694215
v -24.88175011 0 11.28666401
v -25.42643356 1.5 12.03616619
v -26.61228371 0 5.15227032
v -24 0 11
v -24.88175011 1.5 11.28666401
v -23.11824989 0 11.28666401
v -24 1.5 11
v -22.57356644 0 12.03616619
v -23.11824989 1.5 11.28666401
v -22.57356644 1.5 12.03616619
v -22.57356644 1.5 12.96383381
v -15.28666401 1.5 19.11824989
v -17.71333694 0 20.88175011
v -17.71333694 1.5 19.11824989
v -16.96383286 1.5 18.57356644
v -16.03616714 1.5 18.57356644
v -18 1.5 5
v -17.71333694 1.5 5.88175106
v -17.71333694 1.5 4.11824894
v -15.28666401 1.5 5.88175106
v -16.03616714 1.5 6.42643356
v -16.96383286 1.5 6.42643356
v -23.84673882 1.5 2.38694215
v -28.38797379 0 16.36298943
v -28.38797379 0 8.63701057
v -26.61228371 1.5 5.15227032
v -28.99985313 0 12.5
v -28.38797379 1.5 8.63701057
v -28.99985313 1.5 12.5
v -28.38797379 1.5 16.36298943
v -26.61228371 1.5 19.84773064
v -23.84673882 1.5 22.61305809
v 0 28.5 12.5
v -1.5 28.5 12.5
v 0 27.9638195 10.49973011
v 0 30.57356644 12.03616619
v 0 31.84673882 2.38694215
v 0 26.50027084 15.9638195
v -1.5 27.9638195 14.50026989
v 0 24.96383286 18.57356644
v 0 24.5 16.5
v -1.5 26.50027084 15.9638195
v 0 25.71333694 19.11824989
v 0 23.28666306 19.11824989
v -1.5 24.5 16.5
v 0 24.03616714 18.57356644
v -1.5 22.49972916 15.9638195
v 0 22.49972916 9.0361805
v 0 24.03616714 6.42643356
v 0 24.5 8.5
v 0 23.28666306 5.88175106
v 0 25.71333694 5.88175106
v 0 26.50027084 9.0361805
v -1.5 24.5 8.5
v 0 24.96383286 6.42643356
v -1.5 26.50027084 9.0361805
v 0 26 5
v 0 31.84673882 22.61305809
v 0 31.11824989 13.71333599
v 0 32 14
v -1.5 32 14
v 0 32.88175201 13.71333599
v -1.5 32.88175201 13.71333599
v 0 30.57356644 12.96383381
v -1.5 31.11824989 13.71333599
v -1.5 30.57356644 12.96383381
v 0 31.11824989 11.28666401
v -1.5 30.57356644 12.03616619
v 0 32 11
v -1.5 31.11824989 11.28666401
v 0 34.61228561 5.15227032
v 0 32.88175201 11.28666401
v -1.5 32 11
v 0 33.42643356 12.03616619
v -1.5 32.88175201 11.28666401
v 0 33.42643356 12.96383381
v -1.5 33.42643356 12.03616619
v -1.5 33.42643356 12.96383381
v 0 34.61228561 19.84773064
v 0 25.71333694 4.11824894
v -1.5 25.71333694 5.88175106
v -1.5 24.96383286 6.42643356
v -1.5 24.03616714 6.42643356
v -1.5 23.28666306 5.88175106
v -1.5 23.28666306 19.11824989
v -1.5 24.03616714 18.57356644
v -1.5 24.96383286 18.57356644
v -1.5 25.71333694 19.11824989
v -1.5 26 20
v -1.5 25.71333694 20.88175011
v -1.5 31.84673882 22.61305809
v 0 36.38797379 8.63701057
v 0 36.38797379 16.36298943
v -1.5 34.61228561 19.84773064
v 0 36.99985504 12.5
v -1.5 36.38797379 16.36298943
v -1.5 36.99985504 12.5
v -1.5 36.38797379 8.63701057
v -1.5 34.61228561 5.15227032
v -1.5 31.84673882 2.38694215
vn 0 0 -1
vn 1 0 0
vn 0.98073 -0.19536 0
vn 0 0.15642 -0.98769
vn 1 0 0
vn 1 0 0
vn 0 0.15642 -0.98769
vn -1 0 -0
vn 0 1 0
vn -0.15642 0 -0.98769
vn -0.15642 0 -0.98769
vn -0 -1 0
vn -0 -1 -0
vn 0.19536 -0.98073 0
vn -0 -1 0
vn -0 -1 0
vn 0 -1 0
vn -0 -1 0
vn -0 -1 0
vn -0 -1 0
vn 0 -1 0
vn -0 -1 0
vn -0 -1 0
vn -0 -1 0
vn 0.55534 -0.83162 0
vn 0.83162 -0.55534 0
vn 0 0 1
vn -0 -1 -0
vn -0 -1 -0
vn -0.15642 0 0.98769
vn -0.15642 -0 0.98769
vn 0 0.15642 0.98769
vn -0 0.15642 0.98769
vn 1 0 -0
vn 1 0 -0
vn 1 0 -0
vn 1 0 -0
vn 1 -0 -0
vn 1 -0 -0
vn 1 0 -0
vn 1 0 -0
vn 1 0 0
vn 1 0 0
vn 1 0 -0
vn 1 0 -0
vn -0.9659 -0 -0.25891
vn -0.9659 0 0.25891
vn -0.9659 0 0.25891
vn -0.70711 0 -0.70711
vn -0.9659 0 -0.25891
vn -0.25891 -0 -0.9659
vn -0.70711 -0 -0.70711
vn 0.25891 0 -0.9659
vn -0.25891 0 -0.9659
vn 0.70711 0 -0.70711
vn 0.25891 0 -0.9659
vn 0.9659 0 -0.25891
vn 0.70711 0 -0.70711
vn 0.9659 0 0.25891
vn 0.9659 0 -0.25891
vn 0.70711 -0 0.70711
vn 0.9659 -0 0.25891
vn 0.25891 0 0.9659
vn 0.70711 0 0.70711
vn -0.25891 0 0.9659
vn -0.70711 -0 0.70711
vn -0.25891 -0 0.9659
vn -0.70711 0 0.70711
vn 0.30918 0 -0.951
vn -0.30918 -0 -0.951
vn 0.80895 0 -0.58788
vn 0.30918 0 -0.951
vn 1 0 0
vn 0.80895 0 -0.58788
vn 0.80895 0 0.58788
vn 0.30918 0 0.951
vn 0.80895 0 0.58788
vn -0.30918 0 0.951
vn -0.80895 0 0.58788
vn -0.80895 -0 -0.58788
vn -0.951 -0 -0.30918
vn -0.951 -0 0.30918
vn -0.951 0 0.30918
vn -0.58788 0 -0.80895
vn -0.951 0 -0.30918
vn -0.58788 0 -0.80895
vn 0.58788 -0 -0.80895
vn 0.951 0 -0.30918
vn 0.58788 0 -0.80895
vn 0.951 0 0.30918
vn 0.58788 0 0.80895
vn -0 0 1
vn 0.58788 -0 0.80895
vn -0.58788 0 0.80895
vn -0 0 1
vn -0.58788 -0 0.80895
vn 0.30918 -0 0.951
vn 0.80895 0 -0.58788
vn 1 -0 0
vn 0.80895 -0 -0.58788
vn 0.80895 0 0.58788
vn 1 0 0
vn 0.80895 -0 0.58788
vn 0 -0 1
vn -0.58788 -0 0.80895
vn 0 0 1
vn -0.58788 -0 0.80895
vn -0.951 0 -0.30918
vn -0 -0 -1
vn -0 0 -1
vn -0.45396 -0 -0.89102
vn -0.70708 0 -0.70713
vn -0.45396 0 -0.89102
vn -0.89099 0 -0.45402
vn -0.70708 0 -0.70713
vn -0.98769 -0 -0.15644
vn -0.89099 0 -0.45402
vn -0.98769 -0 0.15644
vn -0.98769 -0 -0.15644
vn -0.89099 0 0.45402
vn -0.98769 0 0.15644
vn -0.70708 -0 0.70713
vn -0.89099 -0 0.45402
vn -0.45396 0 0.89102
vn -0.70708 0 0.70713
vn -0.45396 -0 0.89102
vn 0 -0.9659 -0.25891
vn 0 -0.9659 0.25891
vn 0 -0.9659 0.25891
vn -0 -0.70711 -0.70711
vn -0 -0.9659 -0.25891
vn 0 -0.25891 -0.9659
vn 0 -0.70711 -0.70711
vn 0 0.25891 -0.9659
vn 0 -0.25891 -0.9659
vn 0 0.70711 -0.70711
vn 0 0.9659 -0.25891
vn 0 0.70711 -0.70711
vn -0 0.9659 0.25891
vn 0 0.9659 -0.25891
vn 0 0.70711 0.70711
vn 0 0.9659 0.25891
vn -0 0.25891 0.9659
vn 0 0.70711 0.70711
vn 0 -0.25891 0.9659
vn 0 -0.70711 0.70711
vn 0 -0.70711 0.70711
vn 0 0.30918 -0.951
vn 0 -0.30918 -0.951
vn 0 0.80895 -0.58788
vn 0 0.30918 -0.951
vn 0 0.80895 -0.58788
vn -0 0.80895 0.58788
vn -0 0.30918 0.951
vn 0 -0.30918 0.951
vn 0 -0.80895 0.58788
vn -0 -1 0
vn -0 -0.80895 0.58788
vn 0 -0.80895 -0.58788
vn 0 -0.951 -0.30918
vn 0 -0.951 0.30918
vn 0 -0.951 0.30918
vn 0 -0.58788 -0.80895
vn 0 0 -1
vn 0 0.58788 -0.80895
vn -0 0.951 -0.30918
vn -0 0.58788 -0.80895
vn -0 0.951 0.30918
vn 0 0.951 -0.30918
vn -0 0.58788 0.80895
vn 0 -0.58788 0.80895
vn 0 -0.58788 0.80895
vn 0 -0.80895 -0.58788
vn 0 -1 -0
vn -0 1 0
vn -0 0.80895 0.58788
vn -0 1 0
vn 0 -0 1
vn 0 -0.58788 0.80895
vn -0 0.45396 0.89102
vn 0 0.70708 0.70713
vn 0 0.45396 0.89102
vn 0 0.89099 0.45402
vn 0 0.70708 0.70713
vn -0 0.98769 0.15644
vn 0 0.89099 0.45402
vn 0 0.98769 -0.15644
vn 0 0.98769 0.15644
vn 0 0.89099 -0.45402
vn 0 0.98769 -0.15644
vn -0 0.70708 -0.70713
vn -0 0.89099 -0.45402
vn 0 0.45396 -0.89102
vn 0 0.70708 -0.70713
vn -0 0.45396 -0.89102
f 1//1 2//1 3//1
f 4//2 3//2 2//2
f 5//1 1//1 3//1
f 6//1 5//1 3//1
f 7//1 6//1 3//1
f 8//3 7//3 3//3
f 8//3 3//3 4//3
f 9//4 2//4 1//4
f 10//5 4//5 2//5
f 11//6 12//6 2//6
f 13//6 2//6 12//6
f 14//6 11//6 2//6
f 15//6 14//6 2//6
f 16//6 15//6 2//6
f 17//6 16//6 2//6
f 18//6 19//6 2//6
f 10//6 2//6 19//6
f 20//6 18//6 2//6
f 13//6 20//6 2//6
f 9//7 17//7 2//7
f 21//8 1//8 5//8
f 22//8 9//8 1//8
f 23//8 22//8 1//8
f 24//8 23//8 1//8
f 25//8 24//8 1//8
f 21//8 25//8 1//8
f 26//9 5//9 6//9
f 27//8 5//8 28//8
f 29//9 28//9 5//9
f 30//8 5//8 27//8
f 31//8 32//8 5//8
f 33//8 5//8 32//8
f 34//8 31//8 5//8
f 35//8 34//8 5//8
f 36//8 21//8 5//8
f 33//8 36//8 5//8
f 37//8 38//8 5//8
f 35//8 5//8 38//8
f 39//8 37//8 5//8
f 40//8 39//8 5//8
f 30//8 40//8 5//8
f 26//9 29//9 5//9
f 41//1 42//1 6//1
f 43//10 6//10 42//10
f 44//1 41//1 6//1
f 45//1 44//1 6//1
f 7//1 45//1 6//1
f 46//11 6//11 43//11
f 47//9 6//9 46//9
f 48//9 6//9 49//9
f 50//9 49//9 6//9
f 51//9 52//9 6//9
f 26//9 6//9 52//9
f 53//9 51//9 6//9
f 48//9 53//9 6//9
f 54//9 50//9 6//9
f 55//9 54//9 6//9
f 47//9 55//9 6//9
f 56//12 42//12 41//12
f 57//13 58//13 42//13
f 43//13 42//13 58//13
f 59//13 57//13 42//13
f 60//13 59//13 42//13
f 56//13 60//13 42//13
f 61//14 41//14 44//14
f 62//15 41//15 61//15
f 63//16 41//16 64//16
f 65//17 64//17 41//17
f 63//18 66//18 41//18
f 67//19 41//19 66//19
f 68//20 69//20 41//20
f 65//21 41//21 69//21
f 70//22 68//22 41//22
f 62//15 70//15 41//15
f 71//23 56//23 41//23
f 67//24 71//24 41//24
f 72//25 44//25 45//25
f 72//14 61//14 44//14
f 73//26 45//26 7//26
f 72//25 45//25 73//25
f 73//26 7//26 8//26
f 72//27 74//27 61//27
f 75//28 61//28 74//28
f 75//29 62//29 61//29
f 28//27 76//27 74//27
f 77//30 74//30 76//30
f 4//27 28//27 74//27
f 8//27 4//27 74//27
f 73//27 8//27 74//27
f 72//27 73//27 74//27
f 78//13 79//13 74//13
f 80//13 74//13 79//13
f 81//13 78//13 74//13
f 82//13 81//13 74//13
f 83//13 82//13 74//13
f 84//13 83//13 74//13
f 85//13 75//13 74//13
f 86//13 85//13 74//13
f 87//13 86//13 74//13
f 80//13 87//13 74//13
f 77//31 84//31 74//31
f 88//9 76//9 28//9
f 89//9 77//9 76//9
f 90//9 89//9 76//9
f 91//9 90//9 76//9
f 92//9 91//9 76//9
f 88//9 92//9 76//9
f 93//27 27//27 28//27
f 4//27 93//27 28//27
f 94//9 28//9 95//9
f 96//9 95//9 28//9
f 94//9 97//9 28//9
f 98//9 28//9 97//9
f 99//9 28//9 98//9
f 99//9 88//9 28//9
f 100//9 96//9 28//9
f 101//9 100//9 28//9
f 102//9 101//9 28//9
f 29//9 102//9 28//9
f 103//32 27//32 93//32
f 104//33 27//33 103//33
f 105//8 27//8 104//8
f 106//8 27//8 107//8
f 108//8 107//8 27//8
f 109//8 30//8 27//8
f 110//8 109//8 27//8
f 111//8 110//8 27//8
f 106//8 111//8 27//8
f 112//8 108//8 27//8
f 113//8 112//8 27//8
f 105//8 113//8 27//8
f 114//34 93//34 4//34
f 115//6 116//6 93//6
f 103//6 93//6 116//6
f 117//6 115//6 93//6
f 118//6 117//6 93//6
f 114//6 118//6 93//6
f 119//35 120//35 4//35
f 121//36 4//36 120//36
f 122//37 119//37 4//37
f 123//38 122//38 4//38
f 124//39 123//39 4//39
f 125//40 124//40 4//40
f 126//41 125//41 4//41
f 127//42 126//42 4//42
f 10//43 127//43 4//43
f 128//44 4//44 121//44
f 128//45 114//45 4//45
f 80//13 79//13 64//13
f 95//46 64//46 79//46
f 49//47 63//47 64//47
f 65//13 80//13 64//13
f 49//48 64//48 95//48
f 78//13 129//13 79//13
f 94//49 79//49 129//49
f 94//50 95//50 79//50
f 130//13 131//13 129//13
f 97//51 129//51 131//51
f 132//13 129//13 78//13
f 132//13 130//13 129//13
f 94//52 129//52 97//52
f 133//13 134//13 131//13
f 135//53 131//53 134//53
f 136//13 133//13 131//13
f 130//13 136//13 131//13
f 97//54 131//54 135//54
f 84//13 137//13 134//13
f 138//55 134//55 137//55
f 133//13 139//13 134//13
f 84//13 134//13 139//13
f 135//56 134//56 138//56
f 84//13 140//13 137//13
f 89//57 137//57 140//57
f 138//58 137//58 89//58
f 43//13 58//13 140//13
f 141//59 140//59 58//59
f 43//13 140//13 142//13
f 143//13 142//13 140//13
f 84//13 143//13 140//13
f 89//60 140//60 141//60
f 57//13 144//13 58//13
f 145//61 58//61 144//61
f 141//62 58//62 145//62
f 146//13 147//13 144//13
f 148//63 144//63 147//63
f 149//13 144//13 57//13
f 149//13 146//13 144//13
f 145//64 144//64 148//64
f 150//13 66//13 147//13
f 151//65 147//65 66//65
f 152//13 150//13 147//13
f 146//13 152//13 147//13
f 148//63 147//63 151//63
f 153//66 66//66 63//66
f 150//13 67//13 66//13
f 151//67 66//67 153//67
f 153//68 63//68 49//68
f 154//13 155//13 156//13
f 157//69 156//69 155//69
f 143//13 156//13 158//13
f 159//70 158//70 156//70
f 143//13 154//13 156//13
f 159//70 156//70 157//70
f 154//13 160//13 155//13
f 161//71 155//71 160//71
f 161//72 157//72 155//72
f 154//13 162//13 160//13
f 163//73 160//73 162//73
f 161//74 160//74 163//74
f 164//13 165//13 162//13
f 166//75 162//75 165//75
f 167//13 164//13 162//13
f 154//13 167//13 162//13
f 163//73 162//73 166//73
f 164//13 168//13 165//13
f 169//76 165//76 168//76
f 166//77 165//77 169//77
f 164//13 170//13 168//13
f 171//78 168//78 170//78
f 169//76 168//76 171//76
f 43//13 172//13 170//13
f 173//79 170//79 172//79
f 164//13 43//13 170//13
f 171//78 170//78 173//78
f 43//13 142//13 172//13
f 174//8 172//8 142//8
f 173//79 172//79 174//79
f 143//13 158//13 142//13
f 175//80 142//80 158//80
f 174//8 142//8 175//8
f 175//80 158//80 159//80
f 98//81 78//81 81//81
f 176//82 132//82 78//82
f 176//83 78//83 98//83
f 99//84 81//84 82//84
f 99//85 98//85 81//85
f 88//1 82//1 83//1
f 99//86 82//86 88//86
f 84//13 177//13 83//13
f 92//87 83//87 177//87
f 88//1 83//1 92//1
f 84//13 139//13 177//13
f 91//88 177//88 139//88
f 92//89 177//89 91//89
f 90//90 139//90 133//90
f 91//88 139//88 90//88
f 178//91 133//91 136//91
f 90//90 133//90 178//90
f 179//92 136//92 130//92
f 178//93 136//93 179//93
f 180//94 130//94 132//94
f 179//95 130//95 180//95
f 180//96 132//96 176//96
f 52//78 69//78 68//78
f 51//97 65//97 69//97
f 51//76 69//76 52//76
f 26//79 68//79 70//79
f 26//78 52//78 68//78
f 29//8 70//8 62//8
f 26//79 70//79 29//79
f 102//80 62//80 75//80
f 29//8 62//8 102//8
f 101//70 75//70 85//70
f 102//80 75//80 101//80
f 100//69 85//69 86//69
f 101//70 85//70 100//70
f 96//98 86//98 87//98
f 100//69 86//69 96//69
f 48//99 87//99 80//99
f 96//100 87//100 48//100
f 53//101 80//101 65//101
f 48//102 80//102 53//102
f 53//103 65//103 51//103
f 181//90 57//90 59//90
f 182//88 149//88 57//88
f 182//88 57//88 181//88
f 183//91 59//91 60//91
f 183//90 181//90 59//90
f 47//104 60//104 56//104
f 183//93 60//93 47//93
f 55//105 56//105 71//105
f 47//106 56//106 55//106
f 54//82 71//82 67//82
f 55//107 71//107 54//107
f 50//81 67//81 150//81
f 54//83 67//83 50//83
f 184//84 150//84 152//84
f 50//108 150//108 184//108
f 185//109 152//109 146//109
f 184//86 152//86 185//86
f 186//87 146//87 149//87
f 185//110 146//110 186//110
f 186//89 149//89 182//89
f 46//111 43//111 164//111
f 187//112 164//112 167//112
f 46//113 164//113 187//113
f 188//13 189//13 167//13
f 190//114 167//114 189//114
f 154//13 188//13 167//13
f 187//115 167//115 190//115
f 188//13 191//13 189//13
f 192//116 189//116 191//116
f 190//117 189//117 192//117
f 193//118 191//118 188//118
f 192//119 191//119 193//119
f 194//120 188//120 154//120
f 193//121 188//121 194//121
f 195//122 154//122 143//122
f 194//123 154//123 195//123
f 196//124 143//124 84//124
f 195//125 143//125 196//125
f 196//126 84//126 77//126
f 103//6 116//6 197//6
f 198//127 197//127 116//127
f 17//6 197//6 199//6
f 22//128 199//128 197//128
f 103//6 197//6 200//6
f 201//6 200//6 197//6
f 17//6 201//6 197//6
f 22//129 197//129 198//129
f 115//6 202//6 116//6
f 203//130 116//130 202//130
f 203//131 198//131 116//131
f 204//6 205//6 202//6
f 206//132 202//132 205//132
f 207//6 204//6 202//6
f 115//6 207//6 202//6
f 203//133 202//133 206//133
f 208//6 120//6 205//6
f 209//134 205//134 120//134
f 210//6 208//6 205//6
f 204//6 210//6 205//6
f 206//135 205//135 209//135
f 211//136 120//136 119//136
f 208//6 121//6 120//6
f 209//134 120//134 211//134
f 107//137 119//137 122//137
f 211//138 119//138 107//138
f 13//6 12//6 122//6
f 34//139 122//139 12//139
f 123//6 13//6 122//6
f 107//140 122//140 34//140
f 11//6 212//6 12//6
f 31//141 12//141 212//141
f 34//142 12//142 31//142
f 213//6 214//6 212//6
f 32//143 212//143 214//143
f 215//6 213//6 212//6
f 11//6 215//6 212//6
f 31//144 212//144 32//144
f 216//6 217//6 214//6
f 218//145 214//145 217//145
f 219//6 216//6 214//6
f 213//6 219//6 214//6
f 32//143 214//143 218//143
f 17//6 199//6 217//6
f 220//146 217//146 199//146
f 216//6 221//6 217//6
f 17//6 217//6 221//6
f 218//145 217//145 220//145
f 220//147 199//147 22//147
f 222//6 223//6 224//6
f 225//148 224//148 223//148
f 222//6 224//6 226//6
f 227//149 226//149 224//149
f 227//149 224//149 225//149
f 103//6 228//6 223//6
f 229//150 223//150 228//150
f 222//6 103//6 223//6
f 229//151 225//151 223//151
f 103//6 200//6 228//6
f 230//9 228//9 200//9
f 229//152 228//152 230//152
f 201//6 231//6 200//6
f 232//153 200//153 231//153
f 230//9 200//9 232//9
f 201//6 233//6 231//6
f 234//154 231//154 233//154
f 232//153 231//153 234//153
f 235//6 236//6 233//6
f 237//155 233//155 236//155
f 201//6 235//6 233//6
f 234//154 233//154 237//154
f 235//6 238//6 236//6
f 239//156 236//156 238//156
f 237//155 236//155 239//155
f 235//6 240//6 238//6
f 241//157 238//157 240//157
f 239//158 238//158 241//158
f 222//6 226//6 240//6
f 242//159 240//159 226//159
f 243//6 222//6 240//6
f 235//6 243//6 240//6
f 241//13 240//13 242//13
f 242//159 226//159 227//159
f 23//160 221//160 216//160
f 17//6 221//6 244//6
f 24//161 244//161 221//161
f 24//162 221//162 23//162
f 245//163 216//163 219//163
f 245//160 23//160 216//160
f 246//164 219//164 213//164
f 245//163 219//163 246//163
f 247//165 213//165 215//165
f 246//164 213//164 247//164
f 248//166 215//166 11//166
f 247//167 215//167 248//167
f 33//168 11//168 14//168
f 248//169 11//169 33//169
f 36//170 14//170 15//170
f 33//168 14//168 36//168
f 21//27 15//27 16//27
f 36//170 15//170 21//170
f 17//6 244//6 16//6
f 25//171 16//171 244//171
f 21//27 16//27 25//27
f 25//172 244//172 24//172
f 38//155 19//155 18//155
f 37//154 10//154 19//154
f 37//154 19//154 38//154
f 35//156 18//156 20//156
f 35//155 38//155 18//155
f 106//13 20//13 13//13
f 35//156 20//156 106//156
f 111//173 13//173 123//173
f 106//174 13//174 111//174
f 110//149 123//149 124//149
f 111//159 123//159 110//159
f 109//148 124//148 125//148
f 110//149 124//149 109//149
f 30//152 125//152 126//152
f 109//148 125//148 30//148
f 40//175 126//175 127//175
f 30//152 126//152 40//152
f 39//176 127//176 10//176
f 40//177 127//177 39//177
f 39//153 10//153 37//153
f 108//168 121//168 208//168
f 112//166 128//166 121//166
f 112//169 121//169 108//169
f 249//170 208//170 210//170
f 249//168 108//168 208//168
f 250//178 210//178 204//178
f 249//170 210//170 250//170
f 251//171 204//171 207//171
f 250//178 204//178 251//178
f 252//161 207//161 115//161
f 251//179 207//179 252//179
f 253//160 115//160 117//160
f 252//162 115//162 253//162
f 254//163 117//163 118//163
f 253//160 117//160 254//160
f 105//1 118//1 114//1
f 254//163 118//163 105//163
f 113//165 114//165 128//165
f 105//1 114//1 113//1
f 113//167 128//167 112//167
f 104//180 103//180 222//180
f 255//181 222//181 243//181
f 104//182 222//182 255//182
f 256//6 257//6 243//6
f 258//183 243//183 257//183
f 235//6 256//6 243//6
f 255//184 243//184 258//184
f 256//6 259//6 257//6
f 260//185 257//185 259//185
f 258//186 257//186 260//186
f 261//187 259//187 256//187
f 260//188 259//188 261//188
f 262//189 256//189 235//189
f 261//190 256//190 262//190
f 263//191 235//191 201//191
f 262//192 235//192 263//192
f 264//193 201//193 17//193
f 263//194 201//194 264//194
f 264//195 17//195 9//195
f 234//8 264//8 9//8
f 22//8 198//8 9//8
f 230//8 9//8 198//8
f 232//8 234//8 9//8
f 230//8 232//8 9//8
f 241//8 263//8 264//8
f 239//8 241//8 264//8
f 237//8 239//8 264//8
f 234//8 237//8 264//8
f 260//8 262//8 263//8
f 258//8 260//8 263//8
f 241//8 258//8 263//8
f 260//8 261//8 262//8
f 225//8 255//8 258//8
f 227//8 225//8 258//8
f 242//8 227//8 258//8
f 241//8 242//8 258//8
f 198//8 104//8 255//8
f 230//8 198//8 255//8
f 229//8 255//8 225//8
f 229//8 230//8 255//8
f 203//8 104//8 198//8
f 203//8 206//8 104//8
f 253//8 104//8 206//8
f 254//8 105//8 104//8
f 253//8 254//8 104//8
f 23//8 220//8 22//8
f 246//8 218//8 220//8
f 245//8 220//8 23//8
f 245//8 246//8 220//8
f 248//8 32//8 218//8
f 247//8 248//8 218//8
f 246//8 247//8 218//8
f 248//8 33//8 32//8
f 106//8 107//8 34//8
f 35//8 106//8 34//8
f 108//8 211//8 107//8
f 250//8 209//8 211//8
f 249//8 211//8 108//8
f 249//8 250//8 211//8
f 252//8 206//8 209//8
f 251//8 252//8 209//8
f 250//8 251//8 209//8
f 252//8 253//8 206//8
f 159//9 196//9 77//9
f 89//9 141//9 77//9
f 174//9 77//9 141//9
f 175//9 159//9 77//9
f 174//9 175//9 77//9
f 163//9 195//9 196//9
f 159//9 157//9 196//9
f 161//9 196//9 157//9
f 161//9 163//9 196//9
f 192//9 194//9 195//9
f 190//9 192//9 195//9
f 163//9 190//9 195//9
f 192//9 193//9 194//9
f 171//9 187//9 190//9
f 169//9 171//9 190//9
f 166//9 169//9 190//9
f 163//9 166//9 190//9
f 141//9 46//9 187//9
f 174//9 141//9 187//9
f 173//9 174//9 187//9
f 171//9 173//9 187//9
f 145//9 148//9 46//9
f 181//9 46//9 148//9
f 141//9 145//9 46//9
f 183//9 46//9 181//9
f 183//9 47//9 46//9
f 48//9 49//9 95//9
f 96//9 48//9 95//9
f 50//9 153//9 49//9
f 185//9 151//9 153//9
f 184//9 185//9 153//9
f 50//9 184//9 153//9
f 182//9 148//9 151//9
f 186//9 182//9 151//9
f 185//9 186//9 151//9
f 182//9 181//9 148//9
f 90//9 138//9 89//9
f 179//9 135//9 138//9
f 178//9 179//9 138//9
f 90//9 178//9 138//9
f 176//9 97//9 135//9
f 180//9 176//9 135//9
f 179//9 180//9 135//9
f 176//9 98//9 97//9
# Vertices: 264, normals: 195, texture coordinates: 0, faces: 564

